<?xml version="1.0" standalone="no"?>
<!DOCTYPE svg PUBLIC "-//W3C//DTD SVG 1.1//EN" "http://www.w3.org/Graphics/SVG/1.1/DTD/svg11.dtd" >
<svg>
<metadata>
Created by FontForge 20090914 at Thu Aug 20 14:17:04 2020
 By www-data
Copyright (c) 2011-2012, Martin Sommaruga (martin@estudiotrama.com), with Reserved Font Name 'Rambla'
</metadata>
<defs>
<font id="Rambla-Bold" horiz-adv-x="511" >
  <font-face 
    font-family="Rambla"
    font-weight="700"
    font-stretch="normal"
    units-per-em="1000"
    panose-1="2 0 8 6 2 0 0 2 0 4"
    ascent="800"
    descent="-200"
    x-height="512"
    cap-height="668"
    bbox="-77 -295 1135.01 922"
    underline-thickness="50"
    underline-position="-50"
    unicode-range="U+0020-U+FB02"
  />
<missing-glyph horiz-adv-x="500" 
 />
    <glyph glyph-name=".notdef" horiz-adv-x="500" 
 />
    <glyph glyph-name="space" unicode=" " horiz-adv-x="186" 
 />
    <glyph glyph-name="exclam" unicode="!" horiz-adv-x="248" 
d="M197 702l-22 -486h-105l-19 486h146zM67 134c16 16 35.333 24 58 24s42 -8 58 -24s24 -35.167 24 -57.5s-8 -41.833 -24 -58.5s-35.333 -25 -58 -25s-42 8.16699 -58 24.5s-24 35.833 -24 58.5s8 42 24 58z" />
    <glyph glyph-name="quotedbl" unicode="&#x22;" horiz-adv-x="389" 
d="M40 700h126l-18 -251h-90zM223 700h126l-18 -251h-90z" />
    <glyph glyph-name="numbersign" unicode="#" horiz-adv-x="642" 
d="M355 277l17 95h-105l-17 -95h105zM601 172h-154l-32 -185h-111l32 185h-105l-32 -185h-111l32 185h-82v105h101l17 95h-112v104h130l35 192h110l-34 -192h105l35 192h110l-34 -192h100v-104h-118l-17 -95h135v-105z" />
    <glyph glyph-name="dollar" unicode="$" horiz-adv-x="493" 
d="M237 110c62 0 93.001 24.002 93.001 72.002c0 23.333 -10.333 43.333 -31 60s-48.667 33.167 -84 49.5s-60.5 28.833 -75.5 37.5s-31.5 21 -49.5 37c-34 30 -51 71.833 -51 125.5s15.5 96.167 46.5 127.5s71.833 50.666 122.5 57.999l-4 109h91l-4 -107
c42.667 -3.33301 93 -15.333 151 -36l-40 -109c-54.667 19.333 -101.334 29 -140.001 29c-55.333 0 -83.333 -22 -84 -66c0 -18 6 -31.5 18 -40.5s20.667 -15.333 26 -19s16.166 -9.66699 32.499 -18l45.5 -24l38.5 -22c11.667 -7 27.167 -17.833 46.5 -32.5
s34.333 -28.334 45 -41.001c26 -33.333 39 -73.5 39 -120.5s-15.667 -88 -47 -123s-74.666 -56.833 -129.999 -65.5l4 -102h-91l3 100c-72 6 -132.667 20.667 -182 44l37 119c61.333 -28 119.333 -42 174 -42z" />
    <glyph glyph-name="uni0025" unicode="%" horiz-adv-x="810" 
d="M291 0h-130l353 691h129zM64 362.5c-26 26.333 -39 75.5 -39 147.5c0 74.667 17.333 126 52 154c29.333 24 65.333 36 108 36s77 -13.5 103 -40.5s39 -76.5 39 -148.5c0 -74 -17 -125 -51 -153c-29.333 -23.333 -65.5 -35 -108.5 -35s-77.5 13.167 -103.5 39.5zM176 633
c-18.667 0 -32.834 -8.83398 -42.501 -26.501s-14.5 -50 -14.5 -97s4.83301 -78.833 14.5 -95.5s23.834 -25 42.501 -25s32.834 8.5 42.501 25.5s14.5 48.833 14.5 95.5s-4.83301 78.834 -14.5 96.501s-23.834 26.5 -42.501 26.5zM523 29.499
c-26 26.333 -39 75.499 -39 147.499c0 74.667 17.333 126.334 52 155.001c29.333 23.333 65.333 35 108 35s77 -13.5 103 -40.5s39 -76.5 39 -148.5c0 -74 -17.333 -125 -52 -153c-28.667 -23.333 -64.5 -35 -107.5 -35s-77.5 13.167 -103.5 39.5zM635 299.998
c-18.667 0 -32.834 -8.83398 -42.501 -26.501s-14.5 -50 -14.5 -97s4.83301 -78.833 14.5 -95.5s23.834 -25 42.501 -25s32.834 8.5 42.501 25.5s14.5 48.833 14.5 95.5s-4.83301 78.834 -14.5 96.501s-23.834 26.5 -42.501 26.5z" />
    <glyph glyph-name="ampersand" unicode="&#x26;" horiz-adv-x="677" 
d="M182 264c-13.333 -22 -20.001 -45.832 -20.001 -71.499s9.16699 -48.334 27.5 -68.001s47.333 -29.5 87 -29.5s75.167 14.667 106.5 44l-146 175c-23.333 -11.333 -41.666 -28 -54.999 -50zM159.999 645.001c32.667 25.333 74.335 37.999 125.002 37.999
s109.667 -12.333 177 -37l-33 -97c-51.333 22 -95.833 33 -133.5 33s-56.5 -17.333 -56.5 -52c0 -24.667 16 -56 48 -94l171 -206c28.667 56 45.667 121.333 51 196h108c-4 -110 -33.667 -201.667 -89 -275c35.333 -30.667 83.666 -61 144.999 -91l-53 -93
c-24.667 10.667 -53.834 25.5 -87.501 44.5s-61.167 36.833 -82.5 53.5c-49.333 -52 -109.333 -78 -180 -78s-127.5 17.333 -170.5 52s-64.5 85 -64.5 151c0 84.667 47.667 151.334 143 200.001c-44.667 57.333 -67 107.833 -67 151.5s16.333 78.167 49 103.5z" />
    <glyph glyph-name="quotesingle" unicode="'" horiz-adv-x="206" 
d="M40 700h126l-18 -251h-90z" />
    <glyph glyph-name="parenleft" unicode="(" horiz-adv-x="302" 
d="M197 -133c-110.667 151.333 -166 298.833 -166 442.5s55.333 291.167 166 442.5l87 -60c-80 -136.667 -120 -264.667 -120 -384s40 -246.333 120 -381z" />
    <glyph glyph-name="parenright" unicode=")" horiz-adv-x="302" 
d="M105 752c110.667 -151.333 166 -298.833 166 -442.5s-55.333 -291.167 -166 -442.5l-87 60c80 134.667 120 261.667 120 381s-40 247.333 -120 384z" />
    <glyph glyph-name="asterisk" unicode="*" horiz-adv-x="393" 
d="M260 527l98 -38l-51 -82l-74 66l10 -105h-95l10 108l-75 -69l-49 84l98 35l-97 36l47 87l76 -70l-10 107h94l-9 -106l75 68l50 -86z" />
    <glyph glyph-name="plus" unicode="+" horiz-adv-x="483" 
d="M297 77h-111v146h-149v110h149v145h111v-145h149v-110h-149v-146z" />
    <glyph glyph-name="comma" unicode="," horiz-adv-x="218" 
d="M172 59c0 -70 -29.667 -132.332 -89 -186.999h-103c54.667 63.333 82 120.666 82 171.999c0 22 -5.66699 46 -17 72h115c8 -17.333 12 -36.333 12 -57z" />
    <glyph glyph-name="hyphen" unicode="-" horiz-adv-x="509" 
d="M458 332v-109h-407v109h407z" />
    <glyph glyph-name="period" unicode="." horiz-adv-x="242" 
d="M63 134c16 16 35.333 24 58 24s42 -8 58 -24s24 -35.167 24 -57.5s-8 -41.833 -24 -58.5s-35.333 -25 -58 -25s-42 8.16699 -58 24.5s-24 35.833 -24 58.5s8 42 24 58z" />
    <glyph glyph-name="slash" unicode="/" horiz-adv-x="426" 
d="M408 731l-283 -849l-107 29l285 851z" />
    <glyph glyph-name="zero" unicode="0" horiz-adv-x="546" 
d="M369.5 4c-27.667 -11.333 -64.166 -16.999 -109.499 -16.999s-84 9.66699 -116 29c-67.333 41.333 -101 146.666 -101 315.999c0 168.667 35 274.667 105 318c32.667 20.667 75 31 127 31c78 0 135.5 -25.333 172.5 -76s55.5 -140.667 55.5 -270
c0 -132 -20.333 -223.667 -61 -275c-20.667 -26 -44.834 -44.667 -72.501 -56zM273.001 562.001c-34 0 -58.167 -16.5 -72.5 -49.5s-21.5 -92.667 -21.5 -179s7.16699 -146 21.5 -179s38.5 -49.5 72.5 -49.5s58.167 16.5 72.5 49.5s21.5 92.667 21.5 179
s-7.16699 146 -21.5 179s-38.5 49.5 -72.5 49.5z" />
    <glyph glyph-name="one" unicode="1" horiz-adv-x="377" 
d="M313 1h-139v535l-123 -53l-44 99l198 86h108v-667z" />
    <glyph glyph-name="two" unicode="2" horiz-adv-x="482" 
d="M27 0v104.998c72 78.667 131.167 145.834 177.5 201.501s74.666 92.667 84.999 111s15.5 40.5 15.5 66.5s-7.66699 46.333 -23 61s-40.5 22 -75.5 22s-75.833 -10 -122.5 -30l-31 100c60.667 30 120.834 45 180.501 45s107.167 -17.333 142.5 -52s53 -80.667 53 -138
c0 -35.333 -7.33301 -67.833 -22 -97.5s-37.5 -65.167 -68.5 -106.5s-79.5 -98.666 -145.5 -171.999h258l-9 -116h-415z" />
    <glyph glyph-name="three" unicode="3" horiz-adv-x="489" 
d="M286 489c0 23.333 -8.16992 40.667 -24.5029 52s-40.666 17 -72.999 17s-73.166 -10 -122.499 -30l-32 107c65.333 30 128.666 45 189.999 45s109.333 -15.833 144 -47.5s52 -74.167 52 -127.5c0 -26.667 -6.16699 -52.667 -18.5 -78s-31.166 -46 -56.499 -62
c71.333 -30.667 107 -81.5 107 -152.5s-21.167 -126.333 -63.5 -166s-100.166 -59.5 -173.499 -59.5c-54 0 -116.667 12.667 -188 38l30 111c60 -21.333 109 -32 147 -32c76 0 114 34.333 114 103c0 30.667 -10.333 55 -31 73s-51 27 -91 27h-69v101h59
c66.667 0 100 27 100 81z" />
    <glyph glyph-name="four" unicode="4" horiz-adv-x="568" 
d="M545 176h-104v-176h-133v176h-289v74l266 419h156v-398h104v-95zM308 271l-1 234l-141 -234h142z" />
    <glyph glyph-name="five" unicode="5" horiz-adv-x="483" 
d="M220 105c28.667 0 52 9.5 70 28.5s27 47.667 27 86s-8.33301 66.333 -25 84s-39.667 26.5 -69 26.5s-57.666 -13.667 -84.999 -41l-73 35v345h349v-115h-232v-127c21.333 15.333 48.666 23 81.999 23c54 0 98.667 -19.5 134 -58.5s53 -93.167 53 -162.5
s-19.333 -127 -58 -173s-92.5 -69 -161.5 -69s-136.833 20.333 -203.5 61l43 99c56 -28 105.667 -42 149 -42z" />
    <glyph glyph-name="six" unicode="6" horiz-adv-x="499" 
d="M253 -12c-141.333 0 -211.999 98.333 -211.999 295c0 127.333 25 225.333 75 294s116 103 198 103c42 0 83.667 -9.33301 125 -28l-31 -107c-23.333 8.66699 -51.5 13 -84.5 13s-61.167 -11.667 -84.5 -35s-39.333 -60 -48 -110c13.333 12 29.166 21 47.499 27
s33.833 9 46.5 9c56 0 100.333 -18 133 -54s49 -89.5 49 -160.5s-18.333 -129.833 -55 -176.5s-89.667 -70 -159 -70zM199.001 149c12.667 -30 31.5 -44.999 56.5 -44.999s44.167 11.167 57.5 33.5s20 52.166 20 89.499s-6.5 64.333 -19.5 81s-32 25.167 -57 25.5
s-50.5 -7.16699 -76.5 -22.5c0 -78 6.33301 -132 19 -162z" />
    <glyph glyph-name="seven" unicode="7" horiz-adv-x="433" 
d="M22 554l-0.000976562 115h399v-72l-108 -259c-49.333 -108 -82.666 -220.667 -99.999 -338h-131c14 112.667 46 226 96 340c1.33301 2.66699 33.333 74 96 214h-252z" />
    <glyph glyph-name="eight" unicode="8" horiz-adv-x="518" 
d="M424.5 47c-37 -39.333 -91.667 -59.0029 -164 -59.0029s-127.666 17.667 -165.999 53s-57.5 84 -57.5 146c0 32.667 9.83301 64.334 29.5 95.001s46.5 56 80.5 76c-53.333 32.667 -80 79.334 -80 140.001s18.167 106.334 54.5 137.001s83.666 46 141.999 46
s104.833 -14.667 139.5 -44s52 -70 52 -122c0 -67.333 -31 -119.333 -93 -156c78.667 -38 118 -94.333 118 -169c0 -56 -18.5 -103.667 -55.5 -143zM311.5 551.497c-13 10.333 -29.332 15.5029 -48.999 15.5029s-36.5 -4.83301 -50.5 -14.5s-21 -25.334 -21 -47.001
s7.16699 -41.834 21.5 -60.501s32.166 -33 53.499 -43c19.333 11.333 35 27.333 47 48s18 40.167 18 58.5s-6.5 32.666 -19.5 42.999zM167.001 190c0 -27.333 8.66895 -48.5 26.002 -63.5s39.666 -22.5 66.999 -22.5s49.166 8.5 65.499 25.5s24.5 39.167 24.5 66.5
s-9.33301 49 -28 65s-45 30.667 -79 44c-0.666992 0 -2 0.5 -4 1.5s-3.33301 1.5 -4 1.5l-1 1c-44.667 -27.333 -67 -67 -67 -119z" />
    <glyph glyph-name="nine" unicode="9" horiz-adv-x="500" 
d="M247 679c141.333 0 211.999 -98.333 211.999 -295c0 -127.333 -25 -225.166 -75 -293.499s-116 -102.5 -198 -102.5c-42 0 -83.667 9.33301 -125 28l31 107c23.333 -8.66699 51.5 -13 84.5 -13s61.167 11.667 84.5 35s39.333 59.666 48 108.999
c-13.333 -12 -29.166 -21 -47.499 -27s-33.833 -9 -46.5 -9c-56 0 -100.333 18 -133 54s-49 89.5 -49 160.5s18.333 129.833 55 176.5s89.667 70 159 70zM300.999 518c-12.667 30 -31.5 44.999 -56.5 44.999s-44.167 -11.167 -57.5 -33.5s-20 -52.166 -20 -89.499
s6.5 -64.333 19.5 -81s32 -25.167 57 -25.5s50.5 7.16699 76.5 22.5c0 78 -6.33301 132 -19 162z" />
    <glyph glyph-name="colon" unicode=":" horiz-adv-x="266" 
d="M74 134c16 16 35.333 24 58 24s42 -8 58 -24s24 -35.167 24 -57.5s-8 -41.833 -24 -58.5s-35.333 -25 -58 -25s-42 8.16699 -58 24.5s-24 35.833 -24 58.5s8 42 24 58zM76 431c16 16 35.333 24 58 24s42 -8 58 -24s24 -35.167 24 -57.5s-8 -41.833 -24 -58.5
s-35.333 -25 -58 -25s-42 8.16699 -58 24.5s-24 35.833 -24 58.5s8 42 24 58z" />
    <glyph glyph-name="semicolon" unicode=";" horiz-adv-x="256" 
d="M194 59c0 -70 -29.667 -132.332 -89 -186.999h-103c54.667 63.333 82 120.666 82 171.999c0 22 -5.66699 46 -17 72h115c8 -17.333 12 -36.333 12 -57zM68 428.001c16 16 35.333 24 58 24s42 -8 58 -24s24 -35.167 24 -57.5s-8 -41.833 -24 -58.5s-35.333 -25 -58 -25
s-42 8.16699 -58 24.5s-24 35.833 -24 58.5s8 42 24 58z" />
    <glyph glyph-name="less" unicode="&#x3c;" horiz-adv-x="439" 
d="M31 236v88l356 178v-122l-208 -99l208 -101v-120z" />
    <glyph glyph-name="equal" unicode="=" horiz-adv-x="488" 
d="M433 431v-107h-378v107h378zM433 236v-108h-378v108h378z" />
    <glyph glyph-name="greater" unicode="&#x3e;" horiz-adv-x="439" 
d="M408 324v-88l-356 -176v120l208 101l-208 99v122z" />
    <glyph glyph-name="question" unicode="?" horiz-adv-x="366" 
d="M175 105c15.333 -15.333 23.002 -33.668 23.002 -55.001s-7.5 -39.833 -22.5 -55.5s-33.333 -23.5 -55 -23.5s-40.167 7.83301 -55.5 23.5s-23 34.334 -23 56.001s7.66699 40 23 55s33.666 22.5 54.999 22.5s39.666 -7.66699 54.999 -23zM176.002 237.998
l-2.00195 -54.002h-114c-2 24 -3 46.333 -3 67c2.66699 22 9.5 43.667 20.5 65s21.5 37.833 31.5 49.5s22.667 24.667 38 39l33 31.5c22.667 22.667 34 47.334 34 74.001c0 55.333 -54.667 88 -164 98l25 92c83.333 -4 148.833 -23.167 196.5 -57.5
s71.5 -75.833 71.5 -124.5c0 -27.333 -5.33301 -50.833 -16 -70.5s-20.5 -34 -29.5 -43s-21.667 -20.667 -38 -35s-29.166 -26.333 -38.499 -36s-18.666 -23.167 -27.999 -40.5s-15 -35.666 -17 -54.999z" />
    <glyph glyph-name="at" unicode="@" horiz-adv-x="801" 
d="M441 415c-30 0 -55 -13.499 -75 -40.499s-30 -60.833 -30 -101.5c0 -54 17.333 -81 52 -81c17.333 0 32 7.66699 44 23s18.667 34.666 20 57.999l11 139c-4.66699 2 -12 3 -22 3zM394 -85.999c-103.333 0 -188.001 27.999 -254.001 83.999
c-32.667 28.667 -58.167 67 -76.5 115s-27.5 103.667 -27.5 167c0 120 35.833 216.667 107.5 290s169.834 110 294.501 110c110.667 0 194.5 -28.5 251.5 -85.5s85.5 -135.833 85.5 -236.5c0 -171.333 -63 -257 -189 -257c-19.333 0 -38.5 5.5 -57.5 16.5
s-32.5 24.833 -40.5 41.5c-12 -16 -28.167 -29.833 -48.5 -41.5s-40.5 -17.5 -60.5 -17.5c-46 0 -83 14.667 -111 44s-42 70 -42 122c0 70.667 20.333 128 61 172s91.667 66 153 66c40 0 86.667 -11.667 140 -35l-18 -208c-0.666992 -8 -1 -18.5 -1 -31.5
s3.16699 -22.167 9.5 -27.5s17.5 -8 33.5 -8c42 0 63 55 63 165c0 70 -19.333 124.667 -58 164s-96.334 59 -173.001 59c-90.667 0 -161.334 -26.667 -212.001 -80s-76 -126.666 -76 -219.999c0 -115.333 39 -194.333 117 -237c40.667 -22 88.834 -33 144.501 -33
s123.834 14 204.501 42l25 -86c-82 -36 -163.667 -54 -245 -54z" />
    <glyph glyph-name="A" unicode="A" horiz-adv-x="568" 
d="M570 0h-142l-47 158h-193l-46 -158h-146l212 668h153zM350 267l-66 263l-65 -263h131z" />
    <glyph glyph-name="B" unicode="B" horiz-adv-x="549" 
d="M410 632c45.333 -29.333 68.002 -74.334 68.002 -135.001s-21.667 -104.334 -65 -131.001c38.667 -17.333 65.5 -38.5 80.5 -63.5s22.5 -57.833 22.5 -98.5c0 -63.333 -19.167 -113.166 -57.5 -149.499s-96.5 -54.5 -174.5 -54.5h-220v668h146
c51.333 0 91.666 -2.16699 120.999 -6.5s55.666 -14.166 78.999 -29.499zM207.002 561.999l-0.000976562 -152.999h67c43.333 3.33301 65 30.333 65 81c0 37.333 -14.667 59.666 -44 66.999c-13.333 3.33301 -35.666 5 -66.999 5h-21zM267.001 114
c73.333 0 110 31.332 110 93.999c0 36.667 -10.5 61.834 -31.5 75.501s-51.167 20.5 -90.5 20.5h-48v-190h60z" />
    <glyph glyph-name="C" unicode="C" horiz-adv-x="519" 
d="M483 5c-52.667 -12 -101.5 -17.998 -146.5 -17.998s-84 5.83301 -117 17.5s-63.5 30.5 -91.5 56.5c-59.333 55.333 -89 147 -89 275c0 63.333 8.66699 118.166 26 164.499s41 82.166 71 107.499c56 47.333 123.667 71 203 71c50 0 100.333 -7.33301 151 -22l-23 -103
c-38 7.33301 -73.333 11 -106 11c-54 0 -96.667 -16.833 -128 -50.5s-47 -92.667 -47 -177s16 -144 48 -179s76.333 -52.5 133 -52.5c39.333 0 75 2.66699 107 8z" />
    <glyph glyph-name="D" unicode="D" horiz-adv-x="601" 
d="M208 538v-409.001h50c63.333 0 105.833 16.5 127.5 49.5s32.5 84.833 32.5 155.5s-10.667 122.334 -32 155.001s-64 49 -128 49h-50zM252 -0.000976562l-188 0.000976562v667h188c84 0 142.667 -8.66699 176 -26c88 -45.333 132 -148 132 -308
c0 -72 -10.5 -135.333 -31.5 -190s-54.167 -93.334 -99.5 -116.001c-36 -18 -95 -27 -177 -27z" />
    <glyph glyph-name="E" unicode="E" horiz-adv-x="536" 
d="M208 116h286v-116h-430v669h421v-116h-277v-151h261v-112h-261v-174z" />
    <glyph glyph-name="F" unicode="F" horiz-adv-x="512" 
d="M485 553h-276v-151h252v-112h-252v-290h-145v668h421v-115z" />
    <glyph glyph-name="G" unicode="G" horiz-adv-x="580" 
d="M229.5 662c33.667 11.333 73.499 17.001 119.499 17.001s100.667 -8.66699 164 -26l-21 -104c-44.667 10.667 -91.334 16 -140.001 16s-88.667 -16.833 -120 -50.5s-47 -92.167 -47 -175.5c0 -155.333 51.667 -233 155 -233c20.667 0 42.334 2 65.001 6v124h-94v105h225
v-310c-73.333 -29.333 -148 -44 -224 -44s-140 27.833 -192 83.5s-79.333 144.167 -82 265.5c0 63.333 8.66699 118.166 26 164.499s40.833 82 70.5 107s61.334 43.167 95.001 54.5z" />
    <glyph glyph-name="H" unicode="H" horiz-adv-x="633" 
d="M426 404v264h143v-668h-143v288h-219v-288h-143v668h143v-264h219z" />
    <glyph glyph-name="I" unicode="I" horiz-adv-x="272" 
d="M208 668v-668h-144v668h144z" />
    <glyph glyph-name="J" unicode="J" horiz-adv-x="270" 
d="M65 121l-0.000976562 547.001h143v-545c0 -72.667 -15.167 -133.834 -45.5 -183.501s-83.166 -91.5 -158.499 -125.5l-62 95c50 28 83 57 99 87s24 71.667 24 125z" />
    <glyph glyph-name="K" unicode="K" horiz-adv-x="636" 
d="M230 341l194 327h170l-207 -322l251 -346h-175zM208 668v-668h-144v668h144z" />
    <glyph glyph-name="L" unicode="L" horiz-adv-x="474" 
d="M209 116h255v-116h-400v668h145v-552z" />
    <glyph glyph-name="M" unicode="M" horiz-adv-x="771" 
d="M438 85h-105l-138 394l-16 -479h-133l39 668h156l144 -430l145 430h156l39 -668h-134l-16 478z" />
    <glyph glyph-name="N" unicode="N" horiz-adv-x="682" 
d="M618 0h-152l-263 467v-467h-139v668h152l262 -468v468h140v-668z" />
    <glyph glyph-name="O" unicode="O" horiz-adv-x="618" 
d="M181.5 651.5c36.333 19 76.832 28.499 121.499 28.499s82.834 -6.5 114.501 -19.5s57.5 -30.167 77.5 -51.5s36.333 -47 49 -77c23.333 -56 35 -122 35 -198c0 -94.667 -19 -174 -57 -238c-20 -33.333 -48.333 -59.666 -85 -78.999s-77.5 -29 -122.5 -29
s-83.167 6.5 -114.5 19.5s-57 30.167 -77 51.5s-36.333 47 -49 77c-23.333 56 -35 122 -35 198c0 94 19.333 173.333 58 238c20 34 48.167 60.5 84.5 79.5zM308.999 109.999c48.667 0 82.668 19.832 102.001 59.499s29 88.5 29 146.5s-3.33301 102.833 -10 134.5
s-20 58.334 -40 80.001s-44.833 32.5 -74.5 32.5s-53.334 -5.83301 -71.001 -17.5s-31.167 -28.5 -40.5 -50.5c-17.333 -40.667 -26 -95.167 -26 -163.5s9.66699 -122.333 29 -162s53.333 -59.5 102 -59.5z" />
    <glyph glyph-name="P" unicode="P" horiz-adv-x="540" 
d="M459 610c40.667 -36 61 -88.167 61 -156.5s-22.667 -120.833 -68 -157.5c-23.333 -18.667 -51.666 -32 -84.999 -40s-78 -12 -134 -12h-25v-244h-144v668h193c50.667 0 91.167 -4.33301 121.5 -13s57.166 -23.667 80.499 -45zM346 371c22.667 15.333 34 43.833 34 85.5
s-11.5 69.667 -34.5 84s-60.167 21.5 -111.5 21.5h-26v-212h11c66 0 108.333 7 127 21z" />
    <glyph glyph-name="Q" unicode="Q" horiz-adv-x="618" 
d="M53.5 205.5c-9.66699 39.667 -14.501 82.666 -14.501 128.999s4.66699 89.166 14 128.499s24 75.833 44 109.5s48.167 60 84.5 79s76.833 28.5 121.5 28.5s82.834 -6.5 114.501 -19.5s57.5 -30.167 77.5 -51.5s36.333 -47 49 -77c23.333 -56 35 -122 35 -198
c0 -145.333 -39.333 -245.666 -118 -300.999c75.333 -8.66699 146 -32.667 212 -72l-72 -98c-8.66699 8.66699 -23.167 19.834 -43.5 33.501s-40.833 25.5 -61.5 35.5c-54.667 26.667 -117.667 46 -189 58c-48 0 -89.833 9.5 -125.5 28.5s-63.5 45 -83.5 78
s-34.833 69.333 -44.5 109zM308.999 93.999c87.333 0 131 78.167 131 234.5s-43.667 234.5 -131 234.5s-131 -78.167 -131 -234.5s43.667 -234.5 131 -234.5z" />
    <glyph glyph-name="R" unicode="R" horiz-adv-x="581" 
d="M233 244h-24.999v-244h-144v668h193c50.667 0 91.167 -4.33301 121.5 -13s57.166 -23.667 80.499 -45c40.667 -36 61 -85.333 61 -148c0 -76.667 -22.667 -132 -68 -166c-15.333 -12 -33.333 -22 -54 -30l171 -233l-108 -66l-198 278c-6 -0.666992 -16 -1 -30 -1z
M346.001 371c23.333 16 35 42.833 35 80.5s-9.5 65.5 -28.5 83.5s-58.5 27 -118.5 27h-26v-212h11c66 0 108.333 7 127 21z" />
    <glyph glyph-name="S" unicode="S" horiz-adv-x="499" 
d="M472 187c0 -59.333 -20.499 -107.499 -61.499 -144.499s-96.167 -55.5 -165.5 -55.5c-33.333 0 -70.833 4.5 -112.5 13.5s-76.167 19.833 -103.5 32.5l37 119c61.333 -28 119.333 -42 174 -42c62 0 93 24 93 72c0 23.333 -10.333 43.333 -31 60s-48.667 33.167 -84 49.5
s-60.5 28.833 -75.5 37.5s-31.5 21 -49.5 37c-34 30 -51 73.667 -51 131s20.167 102.333 60.5 135s90.333 49 150 49s123.834 -12.667 192.501 -38l-40 -109c-54.667 19.333 -101.334 29 -140.001 29c-55.333 0 -83.333 -22 -84 -66c0 -18 6 -31.5 18 -40.5
s20.667 -15.333 26 -19s16.166 -9.66699 32.499 -18l45.5 -24l38.5 -22c11.667 -7 27.167 -17.833 46.5 -32.5s34 -28.334 44 -41.001c26.667 -33.333 40 -71 40 -113z" />
    <glyph glyph-name="T" unicode="T" horiz-adv-x="515" 
d="M184 553h-174v115h495v-115h-177v-553h-144v553z" />
    <glyph glyph-name="U" unicode="U" horiz-adv-x="606" 
d="M59 246l-0.000976562 420.999h145v-416c0 -57.333 6.66699 -95 20 -113c13.333 -20 39.833 -30 79.5 -30s65.834 10.333 78.501 31c13.333 17.333 20 54.666 20 111.999v416h145v-421c0 -77.333 -15.667 -138 -47 -182c-40 -49.333 -105.667 -74.666 -197 -75.999
c-91.333 0 -157.333 25.333 -198 76c-30.667 44.667 -46 105.334 -46 182.001z" />
    <glyph glyph-name="V" unicode="V" horiz-adv-x="553" 
d="M276 160l139 508h142l-210 -668h-141l-210 668h142z" />
    <glyph glyph-name="W" unicode="W" horiz-adv-x="795" 
d="M345 612h105l140 -448l36 504h133l-67 -668h-150l-145 494l-144 -494h-150l-67 668h132l36 -505z" />
    <glyph glyph-name="X" unicode="X" horiz-adv-x="600" 
d="M591 0h-161l-133 231l-134 -231h-154l215 334l-205 333h154l126 -227l125 227h156l-208 -327z" />
    <glyph glyph-name="Y" unicode="Y" horiz-adv-x="548" 
d="M346 0h-144v264l-210 404h146l136 -285l136 285h146l-210 -404v-264z" />
    <glyph glyph-name="Z" unicode="Z" horiz-adv-x="525" 
d="M496 117v-117h-453l-11 88l283 464h-267l-15 116h433l9 -93l-281 -458h302z" />
    <glyph glyph-name="bracketleft" unicode="[" horiz-adv-x="346" 
d="M58 -131v879h261v-100l-130 -8v-664l130 -6v-101h-261z" />
    <glyph glyph-name="backslash" unicode="\" horiz-adv-x="428" 
d="M302 -118l-283 849l105 31l285 -851z" />
    <glyph glyph-name="bracketright" unicode="]" horiz-adv-x="346" 
d="M288 748v-879h-261v101l130 6v664l-130 8v100h261z" />
    <glyph glyph-name="asciicircum" unicode="^" horiz-adv-x="499" 
d="M204 643h88l178 -348h-122l-99 200l-101 -200h-120z" />
    <glyph glyph-name="underscore" unicode="_" horiz-adv-x="534" 
d="M483 109v-109h-432v109h432z" />
    <glyph glyph-name="grave" unicode="`" horiz-adv-x="343" 
d="M262 587l-204 76l49 111l189 -109z" />
    <glyph glyph-name="a" unicode="a" horiz-adv-x="510" 
d="M516 17c-34 -18.667 -71.1699 -28 -111.503 -28s-70.166 15.333 -89.499 46c-38.667 -32 -84 -48 -136 -48s-91.333 13.167 -118 39.5s-40 62.166 -40 107.499c0 30 6.33301 55.667 19 77s29 37 49 47c36.667 17.333 74.834 26 114.501 26s71.5 -1 95.5 -3v49
c0 34.667 -7 57 -21 67s-37.833 15 -71.5 15s-71.5 -7 -113.5 -21l-29 88c24.667 14.667 54.834 25.834 90.501 33.501s66.167 11.5 91.5 11.5c68 0 116.5 -14.5 145.5 -43.5s43.5 -78.5 43.5 -148.5v-210c0 -18.667 8.33301 -28 25 -28c8.66699 0 21 2 37 6zM216.997 80
c28 0 55.333 8.66699 82 26v105c-18.667 1.33301 -35 2 -49 2c-66 0 -99 -21.333 -99 -64c0 -46 22 -69 66 -69z" />
    <glyph glyph-name="b" unicode="b" horiz-adv-x="541" 
d="M192 701v-221c14 11.333 32.833 21.166 56.5 29.499s47.5 12.5 71.5 12.5c54.667 0 99.667 -20.833 135 -62.5s53 -101.167 53 -178.5c0 -95.333 -19.333 -168.166 -58 -218.499s-100.667 -75.5 -186 -75.5c-36.667 0 -76 3.5 -118 10.5s-73.333 15.167 -94 24.5v679h140
zM244 100c46 0 77.998 14.001 95.998 42.001s27 68.667 27 122s-7.16699 90.666 -21.5 111.999s-36.166 32 -65.499 32s-58.666 -9 -87.999 -27v-276c18 -3.33301 35.333 -5 52 -5z" />
    <glyph glyph-name="c" unicode="c" horiz-adv-x="438" 
d="M271 -13c-68.667 0 -125.665 22.167 -170.998 66.5s-68 111.333 -68 201s22.333 156.667 67 201s102 66.5 172 66.5c41.333 0 88.333 -7.66699 141 -23l-27 -101c-40.667 9.33301 -73.334 14 -98.001 14c-39.333 0 -69.5 -11.833 -90.5 -35.5s-31.5 -65.5 -31.5 -125.5
s11.5 -101.667 34.5 -125s55.167 -35 96.5 -35c21.333 0 54 3.33301 98 10l17 -91c-52.667 -15.333 -99.334 -23 -140.001 -23z" />
    <glyph glyph-name="d" unicode="d" horiz-adv-x="534" 
d="M34 244c0 185.333 72.3311 278 216.998 278c36.667 0 66.334 -6 89.001 -18v206h141v-717h-116l-8 38c-37.333 -26.667 -81.666 -40 -132.999 -40c-62.667 0 -110 22.667 -142 68s-48 107 -48 185zM264.998 412c-64.667 0 -97.001 -55 -97.001 -165
c0 -100.667 30 -151 90 -151c30.667 0 58.334 7.66699 83.001 23v279c-22 9.33301 -47.333 14 -76 14z" />
    <glyph glyph-name="e" unicode="e" horiz-adv-x="480" 
d="M164 242c1.33301 -100 45.334 -150 132.001 -150c40.667 0 81 7.66699 121 23l24 -95c-51.333 -22 -108.333 -33 -171 -33c-158 0 -237 93 -237 279c0 73.333 19.667 134.333 59 183s96 73 170 73c59.333 0 105.166 -15.833 137.499 -47.5s48.5 -75.834 48.5 -132.501
c0 -33.333 -4.33301 -66.666 -13 -99.999h-271zM336.001 318v6c0 66 -23.333 99 -70 99c-56 0 -89.667 -35 -101 -105h171z" />
    <glyph glyph-name="f" unicode="f" horiz-adv-x="409" 
d="M445 613c-28 6.66699 -61.332 10 -99.999 10s-64.334 -7.5 -77.001 -22.5s-19 -39.5 -19 -73.5v-15h153l-9 -96h-144v-602l-140 14v588l-94 6v82l95 7v29c0 68.667 18.667 118.667 56 150s95.333 47 174 47c40 0 84.667 -8 134 -24z" />
    <glyph glyph-name="g" unicode="g" horiz-adv-x="490" 
d="M283 -23l-101 -0.000976562c-34 -11.333 -51 -31.666 -51 -60.999c0 -37.333 38 -56 114 -56s114 24.333 114 73c0 14.667 -5.5 25.667 -16.5 33s-30.833 11 -59.5 11zM230 418.999c-46 0 -69 -29.999 -69 -89.999c0 -29.333 5.5 -50.666 16.5 -63.999s28.5 -20 52.5 -20
s41.333 6.66699 52 20s16 35.166 16 65.499s-5.33301 52.666 -16 66.999s-28 21.5 -52 21.5zM227 525l88.002 -5c52 0 107 5 165 15l12 -77c-12.667 -3.33301 -47.334 -9 -104.001 -17c23.333 -32.667 35 -69.667 35 -111c0 -57.333 -16.5 -104 -49.5 -140
s-80.5 -54 -142.5 -54c-22 0 -39.667 1.66699 -53 5c-4 -12 -6 -22.333 -6 -31c0 -22 19 -33 57 -33h86c51.333 0 91.333 -11.5 120 -34.5s43 -54.833 43 -95.5c0 -59.333 -22.667 -106 -68 -140s-104 -51 -176 -51s-126.5 12.167 -163.5 36.5s-55.5 58.833 -55.5 103.5
c0 26 8.66699 50.667 26 74s41.666 42 72.999 56c-21.333 14 -32 34.167 -32 60.5s10 52.833 30 79.5c-24 17.333 -42.667 40.5 -56 69.5s-20 60.5 -20 94.5c0 58 16.167 105 48.5 141s79.833 54 142.5 54z" />
    <glyph glyph-name="h" unicode="h" horiz-adv-x="546" 
d="M264 506c27.333 10.667 55 16 83 16s52.333 -4.16699 73 -12.5s36.334 -20.833 47.001 -37.5c19.333 -30 29 -70.333 29 -121v-351h-146v326c0 42.667 -9 68 -27 76c-8.66699 4 -20.334 6 -35.001 6c-37.333 0 -69 -12.333 -95 -37v-371h-140v697l140 9v-239
c20 15.333 43.667 28.333 71 39z" />
    <glyph glyph-name="i" unicode="i" horiz-adv-x="246" 
d="M193 0h-140v512l140 12v-524zM64 735c16 16 35.333 24 58 24s42 -8 58 -24s24 -35.167 24 -57.5s-8 -41.833 -24 -58.5s-35.333 -25 -58 -25s-42 8.16699 -58 24.5s-24 35.833 -24 58.5s8 42 24 58z" />
    <glyph glyph-name="j" unicode="j" horiz-adv-x="244" 
d="M192 51c0 -163.333 -86 -249.332 -258 -257.999l-11 108c47.333 8 80.833 23.667 100.5 47s29.5 60.666 29.5 111.999v448l139 14v-471zM62.5 737.501c16.333 16.333 36.166 24.501 59.499 24.501s43.166 -8.16699 59.499 -24.5s24.5 -36 24.5 -59
s-8.16699 -43 -24.5 -60s-36.166 -25.5 -59.499 -25.5s-43.166 8.33301 -59.499 25s-24.5 36.667 -24.5 60s8.16699 43.166 24.5 59.499z" />
    <glyph glyph-name="k" unicode="k" horiz-adv-x="554" 
d="M193 0h-140v699l140 10v-416l170 219h152l-185 -231l224 -281h-160l-201 261v-261z" />
    <glyph glyph-name="l" unicode="l" horiz-adv-x="309" 
d="M313 9c-34 -14.667 -67.001 -21.999 -99.001 -21.999s-58.333 3.66699 -79 11s-36.167 15.666 -46.5 24.999s-18.166 23 -23.499 41s-8.5 33.167 -9.5 45.5s-1.5 29.5 -1.5 51.5v539h141v-547c0 -19.333 2.83301 -33 8.5 -41s17.167 -12 34.5 -12s35.333 2.33301 54 7z
" />
    <glyph glyph-name="m" unicode="m" horiz-adv-x="836" 
d="M251.5 502c30.333 13.333 62.5039 20 96.5039 20s60.333 -5.66699 79 -17s33.667 -28.666 45 -51.999c18 18.667 42.5 34.834 73.5 48.501s62.167 20.5 93.5 20.5c57.333 0 96.166 -14.833 116.499 -44.5s30.5 -71.834 30.5 -126.501v-351h-140v326
c0 42.667 -9 68 -27 76c-8.66699 4 -20.334 6 -35.001 6c-37.333 0 -69 -12.333 -95 -37c0.666992 -4.66699 1 -11.667 1 -21v-350h-140v326c0 42.667 -9 68 -27 76c-8.66699 4 -20.334 6 -35.001 6c-37.333 0 -69 -12.333 -95 -37v-371h-140v513h115l12 -57
c17.333 17.333 41.166 32.666 71.499 45.999z" />
    <glyph glyph-name="n" unicode="n" horiz-adv-x="546" 
d="M346 522c58 0 97.5 -14.832 118.5 -44.499s31.5 -71.834 31.5 -126.501v-351h-140v326c0 26 -4.16699 46.167 -12.5 60.5s-28.5 21.5 -60.5 21.5s-61 -12.333 -87 -37v-371h-143v513h118l12 -57c19.333 18 43.833 33.5 73.5 46.5s59.5 19.5 89.5 19.5z" />
    <glyph glyph-name="o" unicode="o" 
d="M416 51.5c-41.333 -43 -95.667 -64.501 -163 -64.501s-120.833 21.333 -160.5 64s-59.5 110.334 -59.5 203.001s20.5 160.5 61.5 203.5s94.833 64.5 161.5 64.5c148 0 222 -89 222 -267c0 -92.667 -20.667 -160.5 -62 -203.5zM319.999 380.999
c-14.667 22 -36.166 33 -64.499 33s-50 -11 -65 -33s-22.5 -64.333 -22.5 -127c0 -106.667 29 -160 87 -160c27.333 0 48.666 11.833 63.999 35.5s23 66 23 127s-7.33301 102.5 -22 124.5z" />
    <glyph glyph-name="p" unicode="p" horiz-adv-x="538" 
d="M316 522c62 0 108.999 -23 140.999 -69s48 -108.333 48 -187c0 -186 -76.333 -279 -229 -279c-25.333 0 -53 6 -83 18v-202l-140 -16v726h120l12 -41c42.667 33.333 86.334 50 131.001 50zM252.999 100c76 0 113.999 54 113.999 162c0 97.333 -31.667 146 -95 146
c-25.333 0 -51.666 -8.33301 -78.999 -25v-276c18.667 -4.66699 38.667 -7 60 -7z" />
    <glyph glyph-name="q" unicode="q" horiz-adv-x="541" 
d="M349 19c-34 -21.333 -77.501 -32 -130.501 -32s-97.167 20.833 -132.5 62.5s-53 101.167 -53 178.5c0 196 85 294 255 294c36 0 73.333 -3.66699 112 -11s68.334 -16.333 89.001 -27v-706l-140 9v232zM291.999 409c-44 0 -74.668 -14 -92.001 -42s-26 -68.667 -26 -122
s7.16699 -90.833 21.5 -112.5s35.833 -32.5 64.5 -32.5s58.334 6.66699 89.001 20v281c-17.333 5.33301 -36.333 8 -57 8z" />
    <glyph glyph-name="r" unicode="r" horiz-adv-x="377" 
d="M308 410c-54.667 0 -93 -15.667 -115 -47v-363h-140v513h116l11 -65c38.667 50.667 88 76 148 76c16.667 0 32 -1.66699 46 -5l-23 -115c-14.667 4 -29 6 -43 6z" />
    <glyph glyph-name="s" unicode="s" horiz-adv-x="419" 
d="M237 414c-45.333 0 -68 -15.0029 -68 -45.0029c0 -16 7.66699 -29.667 23 -41s33.833 -21.166 55.5 -29.499s43.334 -17.666 65.001 -27.999s40.167 -25.166 55.5 -44.499s23 -43 23 -71c0 -50 -17 -90.5 -51 -121.5s-84 -46.5 -150 -46.5c-30 0 -61.5 3.33301 -94.5 10
s-57.167 14.334 -72.5 23.001l34 100c52 -17.333 98.833 -26 140.5 -26s62.5 16.333 62.5 49c0 14 -7.66699 26.667 -23 38s-33.833 21.833 -55.5 31.5s-43.334 20.167 -65.001 31.5s-40.167 27.333 -55.5 48s-23 44.667 -23 72c0 51.333 17 90.666 51 117.999
s82.667 41 146 41s113 -10.333 149 -31l-33 -99c-46 14 -84 21 -114 21z" />
    <glyph glyph-name="t" unicode="t" horiz-adv-x="403" 
d="M105 165l0.00195312 251l-90 6v82l93 8v117l140 12v-128h146l-8 -97h-139v-264c0 -19.333 3 -33.166 9 -41.499s18.667 -12.5 38 -12.5s41 3 65 9l21 -99c-32.667 -14 -65.834 -21 -99.501 -21s-59 2 -76 6s-31 8.66699 -42 14s-20.333 13.166 -28 23.499
s-13.334 19.5 -17.001 27.5s-6.5 19.333 -8.5 34c-2.66699 20 -4 44.333 -4 73z" />
    <glyph glyph-name="u" unicode="u" horiz-adv-x="543" 
d="M363 47c-51.333 -40 -105.833 -60.001 -163.5 -60.001s-97 14.833 -118 44.5s-31.5 71.834 -31.5 126.501v355h140v-330c0 -26.667 4 -47 12 -61s27.833 -21 59.5 -21s61.167 10.333 88.5 31v381h140v-526h-115z" />
    <glyph glyph-name="v" unicode="v" 
d="M255 112l107 401h141l-160 -513h-176l-157 513h141z" />
    <glyph glyph-name="w" unicode="w" horiz-adv-x="689" 
d="M279 504l129 9l73 -398l55 398h137l-115 -513h-150l-62 373l-63 -373h-156l-106 513h137l52 -401z" />
    <glyph glyph-name="x" unicode="x" horiz-adv-x="527" 
d="M506 513l-159 -249l172 -264h-148l-107 191l-108 -191h-150l178 266l-160 247h150l93 -172l93 172h146z" />
    <glyph glyph-name="y" unicode="y" horiz-adv-x="502" 
d="M85 -213c-30 0 -65.001 6 -105.001 18l21 97c0 -0.666992 10 -2.5 30 -5.5s33 -4.5 39 -4.5c37.333 0 63.833 6.83301 79.5 20.5s29.834 47.167 42.501 100.5l-187 487l133 17l115 -354l102 350h135l-162 -471c-34.667 -100 -67.5 -167.5 -98.5 -202.5
s-79.167 -52.5 -144.5 -52.5z" />
    <glyph glyph-name="z" unicode="z" horiz-adv-x="451" 
d="M181 95h240l12 -95h-396l-12 75l225 341h-205l-10 96h359l13 -78z" />
    <glyph glyph-name="braceleft" unicode="{" horiz-adv-x="369" 
d="M248 -35h94.998v-95h-89c-48.667 0 -87.5 15.333 -116.5 46s-44.5 73 -46.5 127c-0.666992 15.333 -1.5 40.5 -2.5 75.5s-1.66699 57.167 -2 66.5l-1 27c-0.333008 8.66699 -0.666016 15 -0.999023 19s-1.16602 8.66699 -2.49902 14c-3.33301 10 -10.333 15 -21 15h-43
v104h43c14 0 21.667 9.66699 23 29c1.33301 12 2 25 2 39c2 67.333 3.66699 117 5 149c2 54 17.5 96.333 46.5 127s67.833 46 116.5 46h89v-95h-95c-26.667 0 -40 -26.667 -40 -80l-2 -129c-1.33301 -66.667 -16.333 -112.667 -45 -138
c28.667 -25.333 43.667 -71.333 45 -138l2 -129c0 -53.333 13.333 -80 40 -80z" />
    <glyph glyph-name="bar" unicode="|" horiz-adv-x="234" 
d="M59 -43v737h116v-737h-116z" />
    <glyph glyph-name="braceright" unicode="}" horiz-adv-x="369" 
d="M121 659h-95v95h89c48.667 0 87.5 -15.333 116.5 -46s44.5 -73 46.5 -127c0.666992 -15.333 1.5 -40.5 2.5 -75.5s1.66699 -57.167 2 -66.5l1 -27c0.333008 -8.66699 0.666016 -15 0.999023 -19s1.5 -8.66699 3.5 -14c2.66699 -10 9.33398 -15 20.001 -15h43v-104h-43
c-14 0 -22 -9.66699 -24 -29c-0.666992 -12 -1.33398 -25 -2.00098 -39c-1.33301 -67.333 -2.66602 -117 -3.99902 -149c-2 -54 -17.5 -96.333 -46.5 -127s-67.833 -46 -116.5 -46h-89v95h95c26.667 0 40 26.667 40 80l2 129c1.33301 66.667 16.333 112.667 45 138
c-28.667 25.333 -43.667 71.333 -45 138l-2 129c0 53.333 -13.333 80 -40 80z" />
    <glyph glyph-name="asciitilde" unicode="~" horiz-adv-x="567" 
d="M398 308c27.333 0 51.6641 15.333 72.9971 46l63 -55c-38.667 -68.667 -86.667 -103 -144 -103c-31.333 0 -69.666 11 -114.999 33s-81 33 -107 33s-49.667 -15.333 -71 -46l-63 55c38.667 69.333 84.334 104 137.001 104c34.667 0 77.334 -12 128.001 -36
c46.667 -20.667 79.667 -31 99 -31z" />
    <glyph glyph-name="uni007F" horiz-adv-x="0" 
 />
    <glyph glyph-name="uni00A0" unicode="&#xa0;" horiz-adv-x="186" 
 />
    <glyph glyph-name="exclamdown" unicode="&#xa1;" horiz-adv-x="240" 
d="M47 -178l22 486h105l19 -486h-146zM177 390c-16 -16 -35.333 -24 -58 -24s-42 8 -58 24s-24 35.167 -24 57.5s8 41.833 24 58.5s35.333 25 58 25s42 -8.16699 58 -24.5s24 -35.833 24 -58.5s-8 -42 -24 -58z" />
    <glyph glyph-name="cent" unicode="&#xa2;" horiz-adv-x="440" 
d="M281 496c-39.333 0 -69.501 -11.833 -90.501 -35.5s-31.5 -65.5 -31.5 -125.5s11.5 -101.667 34.5 -125s55.167 -35 96.5 -35c21.333 0 54 3.33301 98 10l17 -91c-34.667 -10.667 -68 -18 -100 -22l6 -108h-90l6 109c-59.333 8 -107.666 34 -144.999 78
s-56 106.5 -56 187.5s18.333 143.5 55 187.5s85.334 69.667 146.001 77l-6 116h90l-7 -115c25.333 -2 59.333 -9 102 -21l-27 -101c-40.667 9.33301 -73.334 14 -98.001 14z" />
    <glyph glyph-name="sterling" unicode="&#xa3;" horiz-adv-x="493" 
d="M36 304v100.002h56c-8 24 -12 53 -12 87c0 61.333 17.833 108.666 53.5 141.999s82 50 139 50s115.833 -14 176.5 -42l-38 -100c-52 21.333 -92.833 32 -122.5 32s-51.5 -6.83301 -65.5 -20.5s-21 -34 -21 -61s5 -56.167 15 -87.5h132l6 -100h-108
c3.33301 -16.667 5 -36.667 5 -60c0 -45.333 -10.667 -88.333 -32 -129h241v-115h-399v100c21.333 10.667 38.333 30.667 51 60s19 57.166 19 83.499s-2.66699 46.5 -8 60.5h-88z" />
    <glyph glyph-name="currency" unicode="&#xa4;" horiz-adv-x="537" 
d="M178 68l-78.002 -100l-69 53l79 101c-28.667 38 -43 81.333 -43 130s16 92.667 48 132l-76 95l69 53l75 -96c28.667 12 58.5 18 89.5 18s58.167 -5.33301 81.5 -16c30.667 40.667 55.334 72 74.001 94l68 -53l-70 -91c36 -39.333 54 -84.833 54 -136.5
s-17 -97.167 -51 -136.5l74 -94l-69 -53l-73 96c-22 -11.333 -50.667 -17 -86 -17s-67.666 7 -96.999 21zM192.998 169c21.333 -22 48.166 -33 80.499 -33s59.166 11 80.499 33s32 49.167 32 81.5s-10.667 59.666 -32 81.999s-48.166 33.5 -80.499 33.5
s-59.166 -11.167 -80.499 -33.5s-32 -49.666 -32 -81.999s10.667 -59.5 32 -81.5z" />
    <glyph glyph-name="yen" unicode="&#xa5;" horiz-adv-x="606" 
d="M83 247v84h113l-175 337h146l136 -285l136 285h146l-175 -337h113v-84h-148v-53h148v-85h-148v-109h-144v109h-148v85h148v53h-148z" />
    <glyph glyph-name="brokenbar" unicode="&#xa6;" horiz-adv-x="236" 
d="M60 407v287h116v-287h-116zM60 -43v285h116v-285h-116z" />
    <glyph glyph-name="section" unicode="&#xa7;" horiz-adv-x="379" 
d="M102 427c-9.33301 28 -14.0039 52.3281 -14.0039 72.9951c0 82 42 138.333 126 169c10.667 4 31.667 9.66699 63 17l23 -99l-46 -16c-36.667 -13.333 -55 -33.666 -55 -60.999c0 -21.333 21.333 -63.666 64 -126.999s68.834 -106.166 78.501 -128.499
s14.5 -45.5 14.5 -69.5c0 -61.333 -26.667 -108.666 -80 -141.999c10.667 -21.333 16 -46 16 -74s-5.16699 -52.333 -15.5 -73s-25.166 -39.334 -44.499 -56.001c-35.333 -29.333 -78.666 -47.333 -129.999 -54l-23 97l47 15c36 12.667 54 33 54 61
c0 12 -2.66699 22.333 -8 31c-9.33301 22.667 -17.666 39.334 -24.999 50.001l-22.5 34l-18 28l-22.5 33c-18 26 -32.5 50.833 -43.5 74.5s-16.5 49.5 -16.5 77.5c0 58.667 26 105.334 78 140.001zM225.996 127.995c12 13.333 17.999 26.501 17.999 39.501
s-3.5 28.667 -10.5 47s-33.833 60.166 -80.5 125.499c-11.333 -10.667 -17 -23.5 -17 -38.5s3.83301 -31.833 11.5 -50.5s28.834 -52.667 63.501 -102z" />
    <glyph glyph-name="dieresis" unicode="&#xa8;" horiz-adv-x="358" 
d="M36.5 715c13 13.333 29.333 20 49 20s36.167 -6.66699 49.5 -20s20 -29.666 20 -48.999s-6.66699 -35.833 -20 -49.5s-29.833 -20.5 -49.5 -20.5s-36 6.83301 -49 20.5s-19.5 30.167 -19.5 49.5s6.5 35.666 19.5 48.999zM221 715c13.333 13.333 29.666 20 48.999 20
s35.666 -6.66699 48.999 -20s20 -29.666 20 -48.999s-6.66699 -35.833 -20 -49.5s-29.666 -20.5 -48.999 -20.5s-35.666 6.83301 -48.999 20.5s-20 30.167 -20 49.5s6.66699 35.666 20 48.999z" />
    <glyph glyph-name="copyright" unicode="&#xa9;" horiz-adv-x="716" 
d="M452 414c-25.333 16 -52.8311 24 -82.498 24s-54.5 -11.333 -74.5 -34s-30 -58 -30 -106s10 -83.5 30 -106.5s44.5 -34.5 73.5 -34.5s59.167 9 90.5 27l22 -49c-34.667 -24.667 -74.334 -37 -119.001 -37s-83.667 16.833 -117 50.5s-50 83.5 -50 149.5
s16.667 115.833 50 149.5s72.166 50.5 116.499 50.5s82.5 -10.667 114.5 -32zM678.002 302c0 -89.333 -31 -165 -93 -227s-137.667 -93 -227 -93s-165 31 -227 93s-93 137.667 -93 227s31 165 93 227s137.667 93 227 93s165 -31 227 -93s93 -137.667 93 -227zM603.002 302
c0 73.333 -23.167 133.831 -69.5 181.498s-104.833 71.5 -175.5 71.5s-129.334 -24.167 -176.001 -72.5s-70 -109.166 -70 -182.499s23.333 -134.166 70 -182.499s105.334 -72.5 176.001 -72.5s129.167 24.5 175.5 73.5s69.5 110.167 69.5 183.5z" />
    <glyph glyph-name="ordfeminine" unicode="&#xaa;" horiz-adv-x="342" 
d="M310 421c-20 -11.333 -41.002 -16.999 -63.002 -16.999s-38.667 8 -50 24c-22 -16.667 -47.167 -25 -75.5 -25s-50 7.5 -65 22.5s-22.333 36.833 -22 65.5s11 49.167 32 61.5s43.167 18.5 66.5 18.5s41.333 -0.666992 54 -2v26c0 17.333 -3.66699 28.666 -11 33.999
s-19.166 8 -35.499 8s-38.166 -4.33301 -65.499 -13l-18 53c28 17.333 61.667 26 101 26s67 -8.16699 83 -24.5s24 -43.833 24 -82.5v-117c0 -8 3.83301 -12 11.5 -12s15.167 1.33301 22.5 4zM176.998 527.001l-15 1c-34.667 0 -52 -11.5 -52 -34.5s11 -34.5 33 -34.5
c15.333 0 30 4.33301 44 13v55h-10z" />
    <glyph glyph-name="guillemotleft" unicode="&#xab;" horiz-adv-x="560" 
d="M525 421l-139 -145l139 -142l-82 -73l-176 186v59l176 185zM294 421l-140 -145l140 -142l-82 -73l-176 186v59l176 185z" />
    <glyph glyph-name="logicalnot" unicode="&#xac;" horiz-adv-x="566" 
d="M508 225h-110v108h-347v109h457v-217z" />
    <glyph glyph-name="uni00AD" unicode="&#xad;" horiz-adv-x="509" 
 />
    <glyph glyph-name="registered" unicode="&#xae;" horiz-adv-x="716" 
d="M678 302c0 -89.333 -31 -165 -93 -227s-137.667 -93 -227 -93s-165 31 -227 93s-93 137.667 -93 227s31 165 93 227s137.667 93 227 93s165 -31 227 -93s93 -137.667 93 -227zM603 302c0 73.333 -23.167 133.831 -69.5 181.498s-104.833 71.5 -175.5 71.5
s-129.334 -24.167 -176.001 -72.5s-70 -109.166 -70 -182.499s23.333 -134.166 70 -182.499s105.334 -72.5 176.001 -72.5s129.167 24.5 175.5 73.5s69.5 110.167 69.5 183.5zM331 496.998c100.667 0 151 -38.668 151 -116.001c0 -41.333 -12.333 -72 -37 -92
c-10 -8.66699 -21 -15 -33 -19c2 -4 16.167 -23.333 42.5 -58s46.5 -60 60.5 -76l-42 -31c-41.333 44.667 -81 96.334 -119 155.001c-17.333 -1.33301 -30.333 -2 -39 -2h-21v-147h-59v386h96zM396 320.997c16 11.333 24 30.833 24 58.5s-8 46.667 -24 57
s-40.333 15.5 -73 15.5h-29v-147h20c42 0 69.333 5.33301 82 16z" />
    <glyph glyph-name="macron" unicode="&#xaf;" horiz-adv-x="532" 
d="M487 650v-109h-442v109h442z" />
    <glyph glyph-name="degree" unicode="&#xb0;" horiz-adv-x="311" 
d="M276 565c0 -33.333 -10.5 -62 -31.5 -86s-51 -36 -90 -36s-68.667 11.667 -89 35s-30.5 51.833 -30.5 85.5s10.333 62 31 85s50.5 34.5 89.5 34.5s68.833 -11.333 89.5 -34s31 -50.667 31 -84zM155 507c35.333 0 53 18.5 53 55.5s-17.667 55.5 -53 55.5
c-17.333 0 -30.166 -5.33301 -38.499 -16s-12.5 -23.667 -12.5 -39s4.16699 -28.5 12.5 -39.5s21.166 -16.5 38.499 -16.5z" />
    <glyph glyph-name="plusminus" unicode="&#xb1;" 
d="M311 187h-111v146h-149v110h149v145h111v-145h149v-110h-149v-146zM459 110v-109h-407v109h407z" />
    <glyph glyph-name="twosuperior" unicode="&#xb2;" horiz-adv-x="378" 
d="M46 256l-0.000976562 75.001c46.667 46.667 88.334 92 125.001 136c29.333 36.667 44 63.167 44 79.5s-4 28.5 -12 36.5s-18.5 12 -31.5 12s-41.833 -8 -86.5 -24l-26 77c45.333 21.333 86.833 32 124.5 32s68.167 -11.333 91.5 -34s35 -52 35 -88
c0 -50.667 -35.333 -112.334 -106 -185.001c-13.333 -15.333 -22 -25 -26 -29h145v-88h-277z" />
    <glyph glyph-name="threesuperior" unicode="&#xb3;" horiz-adv-x="367" 
d="M152 444l-49.001 -0.000976562v70h48c28.667 0 43 16 43 48c0 22.667 -13.667 34 -41 34s-53.666 -6.33301 -78.999 -19l-26 71c42.667 21.333 82.5 32 119.5 32s66.667 -10 89 -30s33.5 -46.5 33.5 -79.5s-11.667 -60.5 -35 -82.5c32.667 -20 49 -51.833 49 -95.5
s-13 -78.5 -39 -104.5s-59.667 -39 -101 -39s-84.333 14 -129 42l35 74c34 -20.667 64.333 -31 91 -31c14.667 0 26.5 4.83301 35.5 14.5s13.5 22.834 13.5 39.501c0 37.333 -19.333 56 -58 56z" />
    <glyph glyph-name="acute" unicode="&#xb4;" horiz-adv-x="342" 
d="M288 663l-204 -76l-34 78l189 109z" />
    <glyph glyph-name="mu" unicode="&#xb5;" horiz-adv-x="603" 
d="M249 -3c-18 0 -34 3 -48 9v-207h-140v714h140v-330c0 -26.667 4 -47 12 -61s27.833 -21 59.5 -21s61.167 10.333 88.5 31v381h140v-391c0 -18.667 8.33301 -28 25 -28c8.66699 0 21 2 37 6l19 -83c-34 -18.667 -70.333 -28 -109 -28c-50 0 -83 21.333 -99 64
c-37.333 -37.333 -79 -56 -125 -56z" />
    <glyph glyph-name="paragraph" unicode="&#xb6;" horiz-adv-x="506" 
d="M478 604h-72v-766h-74v766h-74v-766h-78v513c-44 0 -81.5 15.5 -112.5 46.5s-46.5 68.5 -46.5 112.5s15.5 81.333 46.5 112s68.5 46 112.5 46h298v-64z" />
    <glyph glyph-name="periodcentered" unicode="&#xb7;" horiz-adv-x="248" 
d="M66 321c16 16 35.333 24 58 24s42 -8 58 -24s24 -35.167 24 -57.5s-8 -41.833 -24 -58.5s-35.333 -25 -58 -25s-42 8.16699 -58 24.5s-24 35.833 -24 58.5s8 42 24 58z" />
    <glyph glyph-name="cedilla" unicode="&#xb8;" horiz-adv-x="276" 
d="M232 -133c0 -64.667 -42.667 -118.667 -128 -162l-51 65c38.667 28.667 58 59 58 91c0 18.667 -7 46 -21 82h124c12 -26 18 -51.333 18 -76z" />
    <glyph glyph-name="onesuperior" unicode="&#xb9;" horiz-adv-x="320" 
d="M232 251h-103v308l-86 -36l-31 81l143 62h77v-415z" />
    <glyph glyph-name="ordmasculine" unicode="&#xba;" horiz-adv-x="325" 
d="M253 438.5c-23.333 -24.333 -53.999 -36.499 -91.999 -36.499s-68.167 11.833 -90.5 35.5s-33.5 61.667 -33.5 114s11.667 90.666 35 114.999s53.666 36.5 90.999 36.5c83.333 0 125 -50 125 -150c0 -52 -11.667 -90.167 -35 -114.5zM163.001 639.001
c-15.333 0 -27 -6 -35 -18s-12 -35 -12 -69c0 -58 15.5 -87 46.5 -87s46.5 29 46.5 87c0 34 -3.83301 57 -11.5 69s-19.167 18 -34.5 18z" />
    <glyph glyph-name="guillemotright" unicode="&#xbb;" horiz-adv-x="561" 
d="M176 278l-139 145l82 70l176 -185v-59l-176 -186l-82 73zM408 278l-140 145l82 70l176 -185v-59l-176 -186l-82 73z" />
    <glyph glyph-name="onequarter" unicode="&#xbc;" horiz-adv-x="874" 
d="M847 109h-63v-109h-95v109h-164v55l140 244h119v-227h63v-72zM689 181v124l-66 -124h66zM239 272h-103v308l-86 -36l-31 81l143 62h77v-415zM621 765l-283 -849l-107 29l285 851z" />
    <glyph glyph-name="onehalf" unicode="&#xbd;" horiz-adv-x="841" 
d="M239 272h-103v308l-86 -36l-31 81l143 62h77v-415zM533 -2l-0.000976562 75c46.667 46.667 88.334 92 125.001 136c29.333 36.667 44 64.334 44 83.001c0 28 -14.333 42 -43 42c-19.333 0 -48.333 -7 -87 -21l-26 77c45.333 21.333 86.833 32 124.5 32
s68.167 -11.333 91.5 -34s35 -52 35 -88c0 -50.667 -35.333 -112.334 -106 -185.001l-26 -29h145v-88h-277zM604.999 765l-283 -849l-107 29l285 851z" />
    <glyph glyph-name="threequarters" unicode="&#xbe;" horiz-adv-x="874" 
d="M138 460l-45.001 -0.000976562v70h44c31.333 0 47 16 47 48c0 22.667 -13.667 34 -41 34s-53.666 -6.33301 -78.999 -19l-26 71c42.667 21.333 82.5 32 119.5 32s66.667 -10 89 -30s33.5 -46.5 33.5 -79.5s-11.667 -60.5 -35 -82.5c32.667 -20 49 -51.833 49 -95.5
s-13 -78.5 -39 -104.5s-59.667 -39 -101 -39s-84.333 14 -129 42l35 74c34 -20.667 64.333 -31 91 -31c14.667 0 26.5 4.83301 35.5 14.5s13.5 22.834 13.5 39.501s-5.5 30.167 -16.5 40.5s-26.167 15.5 -45.5 15.5zM852.999 108.999h-63v-109h-95v109h-164v55l140 244h119
v-227h63v-72zM694.999 180.999v124l-66 -124h66zM628.999 751.999l-283 -849l-107 29l285 851z" />
    <glyph glyph-name="questiondown" unicode="&#xbf;" horiz-adv-x="361" 
d="M300 393.5c-15.333 -15 -33.833 -22.5 -55.5 -22.5s-40 7.5 -55 22.5s-22.5 33.333 -22.5 55s7.5 40.334 22.5 56.001s33.333 23.5 55 23.5s40.167 -7.83301 55.5 -23.5s23 -34.334 23 -56.001s-7.66699 -40 -23 -55zM188 258l2.00195 54.002h114c2 -24 3 -46.333 3 -67
c-2.66699 -22 -9.5 -43.667 -20.5 -65s-21.5 -37.833 -31.5 -49.5s-22.667 -24.667 -38 -39l-33 -31.5c-22.667 -22.667 -34 -47.334 -34 -74.001c0 -55.333 54.667 -88 164 -98l-25 -92c-83.333 4 -148.833 23.167 -196.5 57.5s-71.5 75.833 -71.5 124.5
c0 27.333 5.33301 50.833 16 70.5s20.5 34 29.5 43s21.667 20.667 38 35s29.166 26.333 38.499 36s18.666 23.167 27.999 40.5s15 35.666 17 54.999z" />
    <glyph glyph-name="Agrave" unicode="&#xc0;" horiz-adv-x="568" 
d="M357 732l-204 76l49 111l189 -109zM570 0h-142l-47 158h-193l-46 -158h-146l212 668h153zM350 267l-66 263l-65 -263h131z" />
    <glyph glyph-name="Aacute" unicode="&#xc1;" horiz-adv-x="568" 
d="M570 0h-142l-47 158h-193l-46 -158h-146l212 668h153zM350 267l-66 263l-65 -263h131zM456 811l-204 -76l-34 78l189 109z" />
    <glyph glyph-name="Acircumflex" unicode="&#xc2;" horiz-adv-x="568" 
d="M570 0h-142l-47 158h-193l-46 -158h-146l212 668h153zM350 267l-66 263l-65 -263h131zM285 796l-84 -85l-64 52l111 119h74l111 -119l-64 -52z" />
    <glyph glyph-name="Atilde" unicode="&#xc3;" horiz-adv-x="568" 
d="M570 0h-142l-47 158h-193l-46 -158h-146l212 668h153zM350 267l-66 263l-65 -263h131zM289 849.5c30 -14.333 52.498 -21.5 67.498 -21.5s32.167 11.667 51.5 35l49 -54c-12 -20 -28.167 -37.5 -48.5 -52.5s-39.666 -22.5 -57.999 -22.5s-42.166 7.16699 -71.499 21.5
s-51.5 21.5 -66.5 21.5s-32.167 -11.667 -51.5 -35l-49 54c12 20 27.833 37.5 47.5 52.5s38.667 22.5 57 22.5s42.5 -7.16699 72.5 -21.5z" />
    <glyph glyph-name="Adieresis" unicode="&#xc4;" horiz-adv-x="568" 
d="M570 0h-142l-47 158h-193l-46 -158h-146l212 668h153zM350 267l-66 263l-65 -263h131zM143.5 834c13 13.333 29.333 20 49 20s36.167 -6.66699 49.5 -20s20 -29.666 20 -48.999s-6.66699 -35.833 -20 -49.5s-29.833 -20.5 -49.5 -20.5s-36 6.83301 -49 20.5
s-19.5 30.167 -19.5 49.5s6.5 35.666 19.5 48.999zM328 834c13.333 13.333 29.666 20 48.999 20s35.666 -6.66699 48.999 -20s20 -29.666 20 -48.999s-6.66699 -35.833 -20 -49.5s-29.666 -20.5 -48.999 -20.5s-35.666 6.83301 -48.999 20.5s-20 30.167 -20 49.5
s6.66699 35.666 20 48.999z" />
    <glyph glyph-name="Aring" unicode="&#xc5;" horiz-adv-x="568" 
d="M387 816c0 -28.667 -9.00098 -53.168 -27.001 -73.501s-43.667 -30.5 -77 -30.5s-58.666 10 -75.999 30s-26 44.333 -26 73s8.83301 52.834 26.5 72.501s43.167 29.5 76.5 29.5s58.833 -9.66699 76.5 -29s26.5 -43.333 26.5 -72zM283.999 774.999
c24 0 36 13.001 36 39.001s-11.833 39 -35.5 39s-35.5 -13 -35.5 -39c0 -10.667 2.83301 -19.834 8.5 -27.501s14.5 -11.5 26.5 -11.5zM569.999 0h-142l-47 158h-193l-46 -158h-146l212 668h153zM349.999 267l-66 263l-65 -263h131z" />
    <glyph glyph-name="AE" unicode="&#xc6;" horiz-adv-x="817" 
d="M361 267v304l-117 -304h117zM370 -1v159h-169l-63 -158h-145l288 668h485v-116h-277v-151h261v-112h-261v-174h286v-116h-405z" />
    <glyph glyph-name="Ccedilla" unicode="&#xc7;" horiz-adv-x="519" 
d="M483 5c-52.667 -12 -101.5 -17.998 -146.5 -17.998s-84 5.83301 -117 17.5s-63.5 30.5 -91.5 56.5c-59.333 55.333 -89 147 -89 275c0 63.333 8.66699 118.166 26 164.499s41 82.166 71 107.499c56 47.333 123.667 71 203 71c50 0 100.333 -7.33301 151 -22l-23 -103
c-38 7.33301 -73.333 11 -106 11c-54 0 -96.667 -16.833 -128 -50.5s-47 -92.667 -47 -177s16 -144 48 -179s76.333 -52.5 133 -52.5c39.333 0 75 2.66699 107 8zM424 -132.998c0 -64.667 -42.667 -118.667 -128 -162l-51 65c38.667 28.667 58 59 58 91
c0 18.667 -7 46 -21 82h124c12 -26 18 -51.333 18 -76z" />
    <glyph glyph-name="Egrave" unicode="&#xc8;" horiz-adv-x="536" 
d="M208 116h286v-116h-430v669h421v-116h-277v-151h261v-112h-261v-174zM354 732l-204 76l49 111l189 -109z" />
    <glyph glyph-name="Eacute" unicode="&#xc9;" horiz-adv-x="536" 
d="M208 116h286v-116h-430v669h421v-116h-277v-151h261v-112h-261v-174zM382 811l-204 -76l-34 78l189 109z" />
    <glyph glyph-name="Ecircumflex" unicode="&#xca;" horiz-adv-x="536" 
d="M208 116h286v-116h-430v669h421v-116h-277v-151h261v-112h-261v-174zM256 796l-84 -85l-64 52l111 119h74l111 -119l-64 -52z" />
    <glyph glyph-name="Edieresis" unicode="&#xcb;" horiz-adv-x="536" 
d="M208 116h286v-116h-430v669h421v-116h-277v-151h261v-112h-261v-174zM126.5 834c13 13.333 29.333 20 49 20s36.167 -6.66699 49.5 -20s20 -29.666 20 -48.999s-6.66699 -35.833 -20 -49.5s-29.833 -20.5 -49.5 -20.5s-36 6.83301 -49 20.5s-19.5 30.167 -19.5 49.5
s6.5 35.666 19.5 48.999zM311 834c13.333 13.333 29.666 20 48.999 20s35.666 -6.66699 48.999 -20s20 -29.666 20 -48.999s-6.66699 -35.833 -20 -49.5s-29.666 -20.5 -48.999 -20.5s-35.666 6.83301 -48.999 20.5s-20 30.167 -20 49.5s6.66699 35.666 20 48.999z" />
    <glyph glyph-name="Igrave" unicode="&#xcc;" horiz-adv-x="272" 
d="M208 668v-668h-144v668h144zM182 732l-204 76l49 111l189 -109z" />
    <glyph glyph-name="Iacute" unicode="&#xcd;" horiz-adv-x="272" 
d="M208 668v-668h-144v668h144zM285 811l-204 -76l-34 78l189 109z" />
    <glyph glyph-name="Icircumflex" unicode="&#xce;" horiz-adv-x="272" 
d="M208 668v-668h-144v668h144zM132 796l-84 -85l-64 52l111 119h74l111 -119l-64 -52z" />
    <glyph glyph-name="Idieresis" unicode="&#xcf;" horiz-adv-x="272" 
d="M208 668v-668h-144v668h144zM-15.5 834c13 13.333 29.333 20 49 20s36.167 -6.66699 49.5 -20s20 -29.666 20 -48.999s-6.66699 -35.833 -20 -49.5s-29.833 -20.5 -49.5 -20.5s-36 6.83301 -49 20.5s-19.5 30.167 -19.5 49.5s6.5 35.666 19.5 48.999zM169 834
c13.333 13.333 29.666 20 48.999 20s35.666 -6.66699 48.999 -20s20 -29.666 20 -48.999s-6.66699 -35.833 -20 -49.5s-29.666 -20.5 -48.999 -20.5s-35.666 6.83301 -48.999 20.5s-20 30.167 -20 49.5s6.66699 35.666 20 48.999z" />
    <glyph glyph-name="Eth" unicode="&#xd0;" horiz-adv-x="653" 
d="M21 280v112.001h95v275h188c84 0 142.667 -8.66699 176 -26c88 -45.333 132 -148 132 -308c0 -72 -10.5 -135.333 -31.5 -190s-54.167 -93.334 -99.5 -116.001c-36 -18 -95 -27 -177 -27h-188v280h-95zM260 538.001v-146.001h115v-112h-115v-151h50
c63.333 0 105.833 16.5 127.5 49.5s32.5 84.833 32.5 155.5s-10.667 122.334 -32 155.001s-64 49 -128 49h-50z" />
    <glyph glyph-name="Ntilde" unicode="&#xd1;" horiz-adv-x="682" 
d="M618 0h-152l-263 467v-467h-139v668h152l262 -468v468h140v-668zM335 849.5c30 -14.333 52.498 -21.5 67.498 -21.5s32.167 11.667 51.5 35l49 -54c-12 -20 -28.167 -37.5 -48.5 -52.5s-39.666 -22.5 -57.999 -22.5s-42.166 7.16699 -71.499 21.5s-51.5 21.5 -66.5 21.5
s-32.167 -11.667 -51.5 -35l-49 54c12 20 27.833 37.5 47.5 52.5s38.667 22.5 57 22.5s42.5 -7.16699 72.5 -21.5z" />
    <glyph glyph-name="Ograve" unicode="&#xd2;" horiz-adv-x="618" 
d="M181.5 651.5c36.333 19 76.832 28.499 121.499 28.499s82.834 -6.5 114.501 -19.5s57.5 -30.167 77.5 -51.5s36.333 -47 49 -77c23.333 -56 35 -122 35 -198c0 -94.667 -19 -174 -57 -238c-20 -33.333 -48.333 -59.666 -85 -78.999s-77.5 -29 -122.5 -29
s-83.167 6.5 -114.5 19.5s-57 30.167 -77 51.5s-36.333 47 -49 77c-23.333 56 -35 122 -35 198c0 94 19.333 173.333 58 238c20 34 48.167 60.5 84.5 79.5zM308.999 109.999c48.667 0 82.668 19.832 102.001 59.499s29 88.5 29 146.5s-3.33301 102.833 -10 134.5
s-20 58.334 -40 80.001s-44.833 32.5 -74.5 32.5s-53.334 -5.83301 -71.001 -17.5s-31.167 -28.5 -40.5 -50.5c-17.333 -40.667 -26 -95.167 -26 -163.5s9.66699 -122.333 29 -162s53.333 -59.5 102 -59.5zM386 731.998l-204 76l49 111l189 -109z" />
    <glyph glyph-name="Oacute" unicode="&#xd3;" horiz-adv-x="618" 
d="M181.5 651.5c36.333 19 76.832 28.499 121.499 28.499s82.834 -6.5 114.501 -19.5s57.5 -30.167 77.5 -51.5s36.333 -47 49 -77c23.333 -56 35 -122 35 -198c0 -94.667 -19 -174 -57 -238c-20 -33.333 -48.333 -59.666 -85 -78.999s-77.5 -29 -122.5 -29
s-83.167 6.5 -114.5 19.5s-57 30.167 -77 51.5s-36.333 47 -49 77c-23.333 56 -35 122 -35 198c0 94 19.333 173.333 58 238c20 34 48.167 60.5 84.5 79.5zM308.999 109.999c48.667 0 82.668 19.832 102.001 59.499s29 88.5 29 146.5s-3.33301 102.833 -10 134.5
s-20 58.334 -40 80.001s-44.833 32.5 -74.5 32.5s-53.334 -5.83301 -71.001 -17.5s-31.167 -28.5 -40.5 -50.5c-17.333 -40.667 -26 -95.167 -26 -163.5s9.66699 -122.333 29 -162s53.333 -59.5 102 -59.5zM431 810.998l-204 -76l-34 78l189 109z" />
    <glyph glyph-name="Ocircumflex" unicode="&#xd4;" horiz-adv-x="618" 
d="M181.5 651.5c36.333 19 76.832 28.499 121.499 28.499s82.834 -6.5 114.501 -19.5s57.5 -30.167 77.5 -51.5s36.333 -47 49 -77c23.333 -56 35 -122 35 -198c0 -94.667 -19 -174 -57 -238c-20 -33.333 -48.333 -59.666 -85 -78.999s-77.5 -29 -122.5 -29
s-83.167 6.5 -114.5 19.5s-57 30.167 -77 51.5s-36.333 47 -49 77c-23.333 56 -35 122 -35 198c0 94 19.333 173.333 58 238c20 34 48.167 60.5 84.5 79.5zM308.999 109.999c48.667 0 82.668 19.832 102.001 59.499s29 88.5 29 146.5s-3.33301 102.833 -10 134.5
s-20 58.334 -40 80.001s-44.833 32.5 -74.5 32.5s-53.334 -5.83301 -71.001 -17.5s-31.167 -28.5 -40.5 -50.5c-17.333 -40.667 -26 -95.167 -26 -163.5s9.66699 -122.333 29 -162s53.333 -59.5 102 -59.5zM310 795.998l-84 -85l-64 52l111 119h74l111 -119l-64 -52z" />
    <glyph glyph-name="Otilde" unicode="&#xd5;" horiz-adv-x="618" 
d="M181.5 651.5c36.333 19 76.832 28.499 121.499 28.499s82.834 -6.5 114.501 -19.5s57.5 -30.167 77.5 -51.5s36.333 -47 49 -77c23.333 -56 35 -122 35 -198c0 -94.667 -19 -174 -57 -238c-20 -33.333 -48.333 -59.666 -85 -78.999s-77.5 -29 -122.5 -29
s-83.167 6.5 -114.5 19.5s-57 30.167 -77 51.5s-36.333 47 -49 77c-23.333 56 -35 122 -35 198c0 94 19.333 173.333 58 238c20 34 48.167 60.5 84.5 79.5zM308.999 109.999c48.667 0 82.668 19.832 102.001 59.499s29 88.5 29 146.5s-3.33301 102.833 -10 134.5
s-20 58.334 -40 80.001s-44.833 32.5 -74.5 32.5s-53.334 -5.83301 -71.001 -17.5s-31.167 -28.5 -40.5 -50.5c-17.333 -40.667 -26 -95.167 -26 -163.5s9.66699 -122.333 29 -162s53.333 -59.5 102 -59.5zM310.5 846.498c29.667 -14.333 52.166 -21.5 67.499 -21.5
s32.666 11.667 51.999 35l49 -54c-12 -20 -28.167 -37.5 -48.5 -52.5s-39.666 -22.5 -57.999 -22.5s-42.166 7.16699 -71.499 21.5s-51.5 21.5 -66.5 21.5s-32.167 -11.667 -51.5 -35l-49 54c12 20 27.833 37.5 47.5 52.5s38.667 22.5 57 22.5s42.333 -7.16699 72 -21.5z
" />
    <glyph glyph-name="Odieresis" unicode="&#xd6;" horiz-adv-x="618" 
d="M181.5 651.5c36.333 19 76.832 28.499 121.499 28.499s82.834 -6.5 114.501 -19.5s57.5 -30.167 77.5 -51.5s36.333 -47 49 -77c23.333 -56 35 -122 35 -198c0 -94.667 -19 -174 -57 -238c-20 -33.333 -48.333 -59.666 -85 -78.999s-77.5 -29 -122.5 -29
s-83.167 6.5 -114.5 19.5s-57 30.167 -77 51.5s-36.333 47 -49 77c-23.333 56 -35 122 -35 198c0 94 19.333 173.333 58 238c20 34 48.167 60.5 84.5 79.5zM308.999 109.999c48.667 0 82.668 19.832 102.001 59.499s29 88.5 29 146.5s-3.33301 102.833 -10 134.5
s-20 58.334 -40 80.001s-44.833 32.5 -74.5 32.5s-53.334 -5.83301 -71.001 -17.5s-31.167 -28.5 -40.5 -50.5c-17.333 -40.667 -26 -95.167 -26 -163.5s9.66699 -122.333 29 -162s53.333 -59.5 102 -59.5zM161.5 833.998c13 13.333 29.333 20 49 20
s36.167 -6.66699 49.5 -20s20 -29.666 20 -48.999s-6.66699 -35.833 -20 -49.5s-29.833 -20.5 -49.5 -20.5s-36 6.83301 -49 20.5s-19.5 30.167 -19.5 49.5s6.5 35.666 19.5 48.999zM346 833.998c13.333 13.333 29.666 20 48.999 20s35.666 -6.66699 48.999 -20
s20 -29.666 20 -48.999s-6.66699 -35.833 -20 -49.5s-29.666 -20.5 -48.999 -20.5s-35.666 6.83301 -48.999 20.5s-20 30.167 -20 49.5s6.66699 35.666 20 48.999z" />
    <glyph glyph-name="multiply" unicode="&#xd7;" horiz-adv-x="516" 
d="M477 152l-78 -77l-140 138l-140 -140l-80 77l140 140l-138 137l79 79l137 -137l138 137l80 -78l-137 -136z" />
    <glyph glyph-name="Oslash" unicode="&#xd8;" horiz-adv-x="618" 
d="M579 334c0 -94.667 -18.999 -174.003 -56.999 -238.003c-20 -33.333 -48.333 -59.666 -85 -78.999s-75.667 -29 -117 -29s-75.666 4 -102.999 12l-45 -110l-105 36l55 133c-55.333 58.667 -83 150.334 -83 275.001c0 94 19.333 173.333 58 238
c20 34 48.167 60.5 84.5 79.5s79.166 28.5 128.499 28.5c25.333 0 47.666 -2.33301 66.999 -7l43 105l103 -38l-47 -114c68.667 -57.333 103 -154.666 103 -291.999zM309.001 109.997c48.667 0 82.667 19.833 102 59.5s29 93.167 29 160.5s-7.33301 119.333 -22 156
l-153 -369c12 -4.66699 26.667 -7 44 -7zM178.001 324.997c0 -40 3.66699 -74.999 11 -104.999l141 341c-9.33301 1.33301 -16.333 2 -21 2c-50.667 0 -85.667 -22.667 -105 -68c-17.333 -40.667 -26 -97.334 -26 -170.001z" />
    <glyph glyph-name="Ugrave" unicode="&#xd9;" horiz-adv-x="606" 
d="M59 246l-0.000976562 420.999h145v-416c0 -57.333 6.66699 -95 20 -113c13.333 -20 39.833 -30 79.5 -30s65.834 10.333 78.501 31c13.333 17.333 20 54.666 20 111.999v416h145v-421c0 -77.333 -15.667 -138 -47 -182c-40 -49.333 -105.667 -74.666 -197 -75.999
c-91.333 0 -157.333 25.333 -198 76c-30.667 44.667 -46 105.334 -46 182.001zM381.999 731.999l-204 76l49 111l189 -109z" />
    <glyph glyph-name="Uacute" unicode="&#xda;" horiz-adv-x="606" 
d="M59 246l-0.000976562 420.999h145v-416c0 -57.333 6.66699 -95 20 -113c13.333 -20 39.833 -30 79.5 -30s65.834 10.333 78.501 31c13.333 17.333 20 54.666 20 111.999v416h145v-421c0 -77.333 -15.667 -138 -47 -182c-40 -49.333 -105.667 -74.666 -197 -75.999
c-91.333 0 -157.333 25.333 -198 76c-30.667 44.667 -46 105.334 -46 182.001zM439.999 810.999l-204 -76l-34 78l189 109z" />
    <glyph glyph-name="Ucircumflex" unicode="&#xdb;" horiz-adv-x="606" 
d="M59 246l-0.000976562 420.999h145v-416c0 -57.333 6.66699 -95 20 -113c13.333 -20 39.833 -30 79.5 -30s65.834 10.333 78.501 31c13.333 17.333 20 54.666 20 111.999v416h145v-421c0 -77.333 -15.667 -138 -47 -182c-40 -49.333 -105.667 -74.666 -197 -75.999
c-91.333 0 -157.333 25.333 -198 76c-30.667 44.667 -46 105.334 -46 182.001zM305.999 795.999l-84 -85l-64 52l111 119h74l111 -119l-64 -52z" />
    <glyph glyph-name="Udieresis" unicode="&#xdc;" horiz-adv-x="606" 
d="M59 246l-0.000976562 420.999h145v-416c0 -57.333 6.66699 -95 20 -113c13.333 -20 39.833 -30 79.5 -30s65.834 10.333 78.501 31c13.333 17.333 20 54.666 20 111.999v416h145v-421c0 -77.333 -15.667 -138 -47 -182c-40 -49.333 -105.667 -74.666 -197 -75.999
c-91.333 0 -157.333 25.333 -198 76c-30.667 44.667 -46 105.334 -46 182.001zM164.499 833.999c13 13.333 29.333 20 49 20s36.167 -6.66699 49.5 -20s20 -29.666 20 -48.999s-6.66699 -35.833 -20 -49.5s-29.833 -20.5 -49.5 -20.5s-36 6.83301 -49 20.5
s-19.5 30.167 -19.5 49.5s6.5 35.666 19.5 48.999zM348.999 833.999c13.333 13.333 29.666 20 48.999 20s35.666 -6.66699 48.999 -20s20 -29.666 20 -48.999s-6.66699 -35.833 -20 -49.5s-29.666 -20.5 -48.999 -20.5s-35.666 6.83301 -48.999 20.5s-20 30.167 -20 49.5
s6.66699 35.666 20 48.999z" />
    <glyph glyph-name="Yacute" unicode="&#xdd;" horiz-adv-x="548" 
d="M346 0h-144v264l-210 404h146l136 -285l136 285h146l-210 -404v-264zM413 811l-204 -76l-34 78l189 109z" />
    <glyph glyph-name="Thorn" unicode="&#xde;" horiz-adv-x="504" 
d="M484 395c0 -75.333 -21.667 -128.999 -65 -160.999c-24 -18.667 -52.5 -31.834 -85.5 -39.501s-77.833 -11.5 -134.5 -11.5h-31v-183h-104v697h104v-100h56c51.333 0 92 -4 122 -12s56.333 -22.333 79 -43c39.333 -34.667 59 -83.667 59 -147zM210 276.001
c65.333 0 109.833 8.33301 133.5 25s35.5 44.5 35.5 83.5s-10.333 68.667 -31 89s-61.667 30.5 -123 30.5h-57v-228h42z" />
    <glyph glyph-name="germandbls" unicode="&#xdf;" horiz-adv-x="604" 
d="M395 404c-7.33301 -10.667 -11.002 -21.3311 -11.002 -31.998s2.83301 -20.167 8.5 -28.5s11.5 -14.166 17.5 -17.499s17.167 -8.66602 33.5 -15.999l38 -17.5c9 -4.33301 21.5 -11.5 37.5 -21.5s27.667 -19.667 35 -29c21.333 -26.667 32 -56.334 32 -89.001
c0 -51.333 -16.5 -91.833 -49.5 -121.5s-77.833 -44.5 -134.5 -44.5c-27.333 0 -59 5.16699 -95 15.5s-63 21.833 -81 34.5l35 98c62 -26 110.667 -39 146 -39s53 16.333 53 49c0 13.333 -7.16699 25.166 -21.5 35.499s-31.666 20 -51.999 29s-40.5 19.167 -60.5 30.5
s-37.167 27.666 -51.5 48.999s-21.5 45 -21.5 71s5.5 48.667 16.5 68s22.833 34.333 35.5 45c34.667 29.333 52 54.333 52 75c0 42.667 -23 64 -69 64c-34 0 -58.667 -9.5 -74 -28.5s-23 -49.167 -23 -90.5v-622h-138v624c0 76 20.833 132.5 62.5 169.5
s97.834 55.5 168.501 55.5s122.834 -15 156.501 -45s50.5 -69.667 50.5 -119c0 -34 -12.333 -64 -37 -90c-10.667 -11.333 -21.334 -21.833 -32.001 -31.5s-19.667 -19.834 -27 -30.501z" />
    <glyph glyph-name="agrave" unicode="&#xe0;" horiz-adv-x="510" 
d="M516 17c-34 -18.667 -71.1699 -28 -111.503 -28s-70.166 15.333 -89.499 46c-38.667 -32 -84 -48 -136 -48s-91.333 13.167 -118 39.5s-40 62.166 -40 107.499c0 30 6.33301 55.667 19 77s29 37 49 47c36.667 17.333 74.834 26 114.501 26s71.5 -1 95.5 -3v49
c0 34.667 -7 57 -21 67s-37.833 15 -71.5 15s-71.5 -7 -113.5 -21l-29 88c24.667 14.667 54.834 25.834 90.501 33.501s66.167 11.5 91.5 11.5c68 0 116.5 -14.5 145.5 -43.5s43.5 -78.5 43.5 -148.5v-210c0 -18.667 8.33301 -28 25 -28c8.66699 0 21 2 37 6zM216.997 80
c28 0 55.333 8.66699 82 26v105c-18.667 1.33301 -35 2 -49 2c-66 0 -99 -21.333 -99 -64c0 -46 22 -69 66 -69zM319.997 587l-204 76l49 111l189 -109z" />
    <glyph glyph-name="aacute" unicode="&#xe1;" horiz-adv-x="510" 
d="M516 17c-34 -18.667 -71.1699 -28 -111.503 -28s-70.166 15.333 -89.499 46c-38.667 -32 -84 -48 -136 -48s-91.333 13.167 -118 39.5s-40 62.166 -40 107.499c0 30 6.33301 55.667 19 77s29 37 49 47c36.667 17.333 74.834 26 114.501 26s71.5 -1 95.5 -3v49
c0 34.667 -7 57 -21 67s-37.833 15 -71.5 15s-71.5 -7 -113.5 -21l-29 88c24.667 14.667 54.834 25.834 90.501 33.501s66.167 11.5 91.5 11.5c68 0 116.5 -14.5 145.5 -43.5s43.5 -78.5 43.5 -148.5v-210c0 -18.667 8.33301 -28 25 -28c8.66699 0 21 2 37 6zM216.997 80
c28 0 55.333 8.66699 82 26v105c-18.667 1.33301 -35 2 -49 2c-66 0 -99 -21.333 -99 -64c0 -46 22 -69 66 -69zM358.997 663l-204 -76l-34 78l189 109z" />
    <glyph glyph-name="acircumflex" unicode="&#xe2;" horiz-adv-x="510" 
d="M239 676l-84 -85l-64 52l111 119h74l111 -119l-64 -52zM516 17c-34 -18.667 -71.1699 -28 -111.503 -28s-70.166 15.333 -89.499 46c-38.667 -32 -84 -48 -136 -48s-91.333 13.167 -118 39.5s-40 62.166 -40 107.499c0 30 6.33301 55.667 19 77s29 37 49 47
c36.667 17.333 74.834 26 114.501 26s71.5 -1 95.5 -3v49c0 34.667 -7 57 -21 67s-37.833 15 -71.5 15s-71.5 -7 -113.5 -21l-29 88c24.667 14.667 54.834 25.834 90.501 33.501s66.167 11.5 91.5 11.5c68 0 116.5 -14.5 145.5 -43.5s43.5 -78.5 43.5 -148.5v-210
c0 -18.667 8.33301 -28 25 -28c8.66699 0 21 2 37 6zM216.997 80c28 0 55.333 8.66699 82 26v105c-18.667 1.33301 -35 2 -49 2c-66 0 -99 -21.333 -99 -64c0 -46 22 -69 66 -69z" />
    <glyph glyph-name="atilde" unicode="&#xe3;" horiz-adv-x="510" 
d="M516 17c-34 -18.667 -71.1699 -28 -111.503 -28s-70.166 15.333 -89.499 46c-38.667 -32 -84 -48 -136 -48s-91.333 13.167 -118 39.5s-40 62.166 -40 107.499c0 30 6.33301 55.667 19 77s29 37 49 47c36.667 17.333 74.834 26 114.501 26s71.5 -1 95.5 -3v49
c0 34.667 -7 57 -21 67s-37.833 15 -71.5 15s-71.5 -7 -113.5 -21l-29 88c24.667 14.667 54.834 25.834 90.501 33.501s66.167 11.5 91.5 11.5c68 0 116.5 -14.5 145.5 -43.5s43.5 -78.5 43.5 -148.5v-210c0 -18.667 8.33301 -28 25 -28c8.66699 0 21 2 37 6zM216.997 80
c28 0 55.333 8.66699 82 26v105c-18.667 1.33301 -35 2 -49 2c-66 0 -99 -21.333 -99 -64c0 -46 22 -69 66 -69zM240.997 706.5c30 -14.333 52.666 -21.5 67.999 -21.5s32.666 11.667 51.999 35l49 -54c-12 -20 -28.167 -37.5 -48.5 -52.5s-39.666 -22.5 -57.999 -22.5
s-42.166 7.16699 -71.499 21.5s-51.5 21.5 -66.5 21.5s-32.167 -11.667 -51.5 -35l-49 54c12 20 27.833 37.5 47.5 52.5s38.5 22.5 56.5 22.5s42 -7.16699 72 -21.5z" />
    <glyph glyph-name="adieresis" unicode="&#xe4;" horiz-adv-x="510" 
d="M516 17c-34 -18.667 -71.1699 -28 -111.503 -28s-70.166 15.333 -89.499 46c-38.667 -32 -84 -48 -136 -48s-91.333 13.167 -118 39.5s-40 62.166 -40 107.499c0 30 6.33301 55.667 19 77s29 37 49 47c36.667 17.333 74.834 26 114.501 26s71.5 -1 95.5 -3v49
c0 34.667 -7 57 -21 67s-37.833 15 -71.5 15s-71.5 -7 -113.5 -21l-29 88c24.667 14.667 54.834 25.834 90.501 33.501s66.167 11.5 91.5 11.5c68 0 116.5 -14.5 145.5 -43.5s43.5 -78.5 43.5 -148.5v-210c0 -18.667 8.33301 -28 25 -28c8.66699 0 21 2 37 6zM216.997 80
c28 0 55.333 8.66699 82 26v105c-18.667 1.33301 -35 2 -49 2c-66 0 -99 -21.333 -99 -64c0 -46 22 -69 66 -69zM106.497 715c13 13.333 29.333 20 49 20s36.167 -6.66699 49.5 -20s20 -29.666 20 -48.999s-6.66699 -35.833 -20 -49.5s-29.833 -20.5 -49.5 -20.5
s-36 6.83301 -49 20.5s-19.5 30.167 -19.5 49.5s6.5 35.666 19.5 48.999zM290.997 715c13.333 13.333 29.666 20 48.999 20s35.666 -6.66699 48.999 -20s20 -29.666 20 -48.999s-6.66699 -35.833 -20 -49.5s-29.666 -20.5 -48.999 -20.5s-35.666 6.83301 -48.999 20.5
s-20 30.167 -20 49.5s6.66699 35.666 20 48.999z" />
    <glyph glyph-name="aring" unicode="&#xe5;" horiz-adv-x="510" 
d="M516 17c-34 -18.667 -71.1699 -28 -111.503 -28s-70.166 15.333 -89.499 46c-38.667 -32 -84 -48 -136 -48s-91.333 13.167 -118 39.5s-40 62.166 -40 107.499c0 30 6.33301 55.667 19 77s29 37 49 47c36.667 17.333 74.834 26 114.501 26s71.5 -1 95.5 -3v49
c0 34.667 -7 57 -21 67s-37.833 15 -71.5 15s-71.5 -7 -113.5 -21l-29 88c24.667 14.667 54.834 25.834 90.501 33.501s66.167 11.5 91.5 11.5c68 0 116.5 -14.5 145.5 -43.5s43.5 -78.5 43.5 -148.5v-210c0 -18.667 8.33301 -28 25 -28c8.66699 0 21 2 37 6zM216.997 80
c28 0 55.333 8.66699 82 26v105c-18.667 1.33301 -35 2 -49 2c-66 0 -99 -21.333 -99 -64c0 -46 22 -69 66 -69zM345.997 701c0 -28.667 -9.00098 -53.168 -27.001 -73.501s-43.667 -30.5 -77 -30.5s-58.666 10 -75.999 30s-26 44.333 -26 73s8.83301 52.834 26.5 72.501
s43.167 29.5 76.5 29.5s58.833 -9.66699 76.5 -29s26.5 -43.333 26.5 -72zM242.996 659.999c24 0 36 13.001 36 39.001s-11.833 39 -35.5 39s-35.5 -13 -35.5 -39c0 -10.667 2.83301 -19.834 8.5 -27.501s14.5 -11.5 26.5 -11.5z" />
    <glyph glyph-name="ae" unicode="&#xe6;" horiz-adv-x="746" 
d="M430 242c1.33301 -100 45.332 -150 131.999 -150c40.667 0 81 7.66699 121 23l24 -95c-51.333 -22 -109.166 -33 -173.499 -33s-115.833 18.667 -154.5 56c-19.333 -14 -46.333 -26.833 -81 -38.5s-69 -17.5 -103 -17.5c-56 0 -99 13 -129 39s-45 62 -45 108
c0 30 6.33301 55.667 19 77s29 37 49 47c36.667 17.333 76 26 118 26s75 -1 99 -3v49c0 34.667 -7 57 -21 67s-39 15 -75 15s-75 -7 -117 -21l-29 88c24.667 14.667 54.834 25.834 90.501 33.501s69.167 11.5 100.5 11.5s58.166 -4.66699 80.499 -14s39.833 -27 52.5 -53
c31.333 43.333 77.333 65 138 65s107.167 -15.833 139.5 -47.5s48.5 -75.834 48.5 -132.501c0 -28 -4.33301 -61.333 -13 -100h-271zM150.999 149c0 -46 26.002 -69 78.002 -69c49.333 0 87 8.66699 113 26c-12.667 28.667 -21.334 63.667 -26.001 105
c-18.667 1.33301 -38.334 2 -59.001 2c-70.667 0 -106 -21.333 -106 -64zM602.001 318v6c0 66 -24.333 99 -73 99c-56.667 0 -90.667 -35 -102 -105h175z" />
    <glyph glyph-name="ccedilla" unicode="&#xe7;" horiz-adv-x="438" 
d="M353 -133c0 -64.667 -42.667 -118.667 -128 -162l-51 65c38.667 28.667 58 59 58 91c0 18.667 -7 46 -21 82h124c12 -26 18 -51.333 18 -76zM271 -13c-68.667 0 -125.665 22.167 -170.998 66.5s-68 111.333 -68 201s22.333 156.667 67 201s102 66.5 172 66.5
c41.333 0 88.333 -7.66699 141 -23l-27 -101c-40.667 9.33301 -73.334 14 -98.001 14c-39.333 0 -69.5 -11.833 -90.5 -35.5s-31.5 -65.5 -31.5 -125.5s11.5 -101.667 34.5 -125s55.167 -35 96.5 -35c21.333 0 54 3.33301 98 10l17 -91
c-52.667 -15.333 -99.334 -23 -140.001 -23z" />
    <glyph glyph-name="egrave" unicode="&#xe8;" horiz-adv-x="480" 
d="M334 587l-204 76l49 111l189 -109zM164 242c1.33301 -100 45.334 -150 132.001 -150c40.667 0 81 7.66699 121 23l24 -95c-51.333 -22 -108.333 -33 -171 -33c-158 0 -237 93 -237 279c0 73.333 19.667 134.333 59 183s96 73 170 73
c59.333 0 105.166 -15.833 137.499 -47.5s48.5 -75.834 48.5 -132.501c0 -33.333 -4.33301 -66.666 -13 -99.999h-271zM336.001 318v6c0 66 -23.333 99 -70 99c-56 0 -89.667 -35 -101 -105h171z" />
    <glyph glyph-name="eacute" unicode="&#xe9;" horiz-adv-x="480" 
d="M377 663l-204 -76l-34 78l189 109zM164 242c1.33301 -100 45.334 -150 132.001 -150c40.667 0 81 7.66699 121 23l24 -95c-51.333 -22 -108.333 -33 -171 -33c-158 0 -237 93 -237 279c0 73.333 19.667 134.333 59 183s96 73 170 73
c59.333 0 105.166 -15.833 137.499 -47.5s48.5 -75.834 48.5 -132.501c0 -33.333 -4.33301 -66.666 -13 -99.999h-271zM336.001 318v6c0 66 -23.333 99 -70 99c-56 0 -89.667 -35 -101 -105h171z" />
    <glyph glyph-name="ecircumflex" unicode="&#xea;" horiz-adv-x="480" 
d="M448 342c0 -33.333 -4.33203 -66.666 -12.999 -99.999h-271c1.33301 -100 45.333 -150 132 -150c40.667 0 81 7.66699 121 23l24 -95c-51.333 -22 -108.333 -33 -171 -33c-158 0 -237 93 -237 279c0 73.333 19.667 134.333 59 183s96 73 170 73
c59.333 0 105.166 -15.833 137.499 -47.5s48.5 -75.834 48.5 -132.501zM336.001 318v6c0 66 -23.333 99 -70 99c-56 0 -89.667 -35 -101 -105h171zM256.001 676l-84 -85l-64 52l111 119h74l111 -119l-64 -52z" />
    <glyph glyph-name="edieresis" unicode="&#xeb;" horiz-adv-x="480" 
d="M115.5 715c13 13.333 29.333 20 49 20s36.167 -6.66699 49.5 -20s20 -29.666 20 -48.999s-6.66699 -35.833 -20 -49.5s-29.833 -20.5 -49.5 -20.5s-36 6.83301 -49 20.5s-19.5 30.167 -19.5 49.5s6.5 35.666 19.5 48.999zM300 715c13.333 13.333 29.666 20 48.999 20
s35.666 -6.66699 48.999 -20s20 -29.666 20 -48.999s-6.66699 -35.833 -20 -49.5s-29.666 -20.5 -48.999 -20.5s-35.666 6.83301 -48.999 20.5s-20 30.167 -20 49.5s6.66699 35.666 20 48.999zM164 242c1.33301 -100 45.334 -150 132.001 -150c40.667 0 81 7.66699 121 23
l24 -95c-51.333 -22 -108.333 -33 -171 -33c-158 0 -237 93 -237 279c0 73.333 19.667 134.333 59 183s96 73 170 73c59.333 0 105.166 -15.833 137.499 -47.5s48.5 -75.834 48.5 -132.501c0 -33.333 -4.33301 -66.666 -13 -99.999h-271zM336.001 318v6
c0 66 -23.333 99 -70 99c-56 0 -89.667 -35 -101 -105h171z" />
    <glyph glyph-name="igrave" unicode="&#xec;" horiz-adv-x="246" 
d="M185 587l-204 76l49 111l189 -109zM193 0h-140v512l140 12v-524z" />
    <glyph glyph-name="iacute" unicode="&#xed;" horiz-adv-x="246" 
d="M276 663l-204 -76l-34 78l189 109zM193 0h-140v512l140 12v-524z" />
    <glyph glyph-name="icircumflex" unicode="&#xee;" horiz-adv-x="246" 
d="M127 676l-84 -85l-64 52l111 119h74l111 -119l-64 -52zM193 0h-140v512l140 12v-524z" />
    <glyph glyph-name="idieresis" unicode="&#xef;" horiz-adv-x="246" 
d="M-12.5 715c13 13.333 29.333 20 49 20s36.167 -6.66699 49.5 -20s20 -29.666 20 -48.999s-6.66699 -35.833 -20 -49.5s-29.833 -20.5 -49.5 -20.5s-36 6.83301 -49 20.5s-19.5 30.167 -19.5 49.5s6.5 35.666 19.5 48.999zM172 715c13.333 13.333 29.666 20 48.999 20
s35.666 -6.66699 48.999 -20s20 -29.666 20 -48.999s-6.66699 -35.833 -20 -49.5s-29.666 -20.5 -48.999 -20.5s-35.666 6.83301 -48.999 20.5s-20 30.167 -20 49.5s6.66699 35.666 20 48.999zM193 0h-140v512l140 12v-524z" />
    <glyph glyph-name="eth" unicode="&#xf0;" horiz-adv-x="499" 
d="M404.5 60c-37.667 -48 -90.499 -72.0029 -158.499 -72.0029s-120.167 23.833 -156.5 71.5s-54.5 108.334 -54.5 182.001s16.333 128.334 49 164.001s77 53.5 133 53.5c37.333 0 68.666 -7.33301 93.999 -22c-7.33301 58 -28.333 102.667 -63 134l-74 -76l-60 58l57 58
c-28 8 -67.333 13.333 -118 16l18 92c72 0 133 -8.33301 183 -25l67 70l58 -60l-47 -48c86 -61.333 129 -177.666 129 -348.999c0 -116.667 -18.833 -199 -56.5 -247zM169.001 243.997c0 -93.333 25.665 -140 76.998 -140c16.667 0 30.334 6 41.001 18
c23.333 25.333 35 96.333 35 213c-21.333 10.667 -48.666 16 -81.999 16c-47.333 -1.33301 -71 -37 -71 -107z" />
    <glyph glyph-name="ntilde" unicode="&#xf1;" horiz-adv-x="546" 
d="M271 706.5c30 -14.333 52.498 -21.5 67.498 -21.5s32.167 11.667 51.5 35l49 -54c-12 -20 -28.167 -37.5 -48.5 -52.5s-39.666 -22.5 -57.999 -22.5s-42.166 7.16699 -71.499 21.5s-51.5 21.5 -66.5 21.5s-32.167 -11.667 -51.5 -35l-49 54c12 20 27.833 37.5 47.5 52.5
s38.667 22.5 57 22.5s42.5 -7.16699 72.5 -21.5zM345.998 522c58 0 97.5 -14.832 118.5 -44.499s31.5 -71.834 31.5 -126.501v-351h-140v326c0 26 -4.16699 46.167 -12.5 60.5s-28.5 21.5 -60.5 21.5s-61 -12.333 -87 -37v-371h-143v513h118l12 -57
c19.333 18 43.833 33.5 73.5 46.5s59.5 19.5 89.5 19.5z" />
    <glyph glyph-name="ograve" unicode="&#xf2;" 
d="M416 51.5c-41.333 -43 -95.667 -64.501 -163 -64.501s-120.833 21.333 -160.5 64s-59.5 110.334 -59.5 203.001s20.5 160.5 61.5 203.5s94.833 64.5 161.5 64.5c148 0 222 -89 222 -267c0 -92.667 -20.667 -160.5 -62 -203.5zM319.999 380.999
c-14.667 22 -36.166 33 -64.499 33s-50 -11 -65 -33s-22.5 -64.333 -22.5 -127c0 -106.667 29 -160 87 -160c27.333 0 48.666 11.833 63.999 35.5s23 66 23 127s-7.33301 102.5 -22 124.5zM335 586.999l-204 76l49 111l189 -109z" />
    <glyph glyph-name="oacute" unicode="&#xf3;" 
d="M416 51.5c-41.333 -43 -95.667 -64.501 -163 -64.501s-120.833 21.333 -160.5 64s-59.5 110.334 -59.5 203.001s20.5 160.5 61.5 203.5s94.833 64.5 161.5 64.5c148 0 222 -89 222 -267c0 -92.667 -20.667 -160.5 -62 -203.5zM319.999 380.999
c-14.667 22 -36.166 33 -64.499 33s-50 -11 -65 -33s-22.5 -64.333 -22.5 -127c0 -106.667 29 -160 87 -160c27.333 0 48.666 11.833 63.999 35.5s23 66 23 127s-7.33301 102.5 -22 124.5zM408 662.999l-204 -76l-34 78l189 109z" />
    <glyph glyph-name="ocircumflex" unicode="&#xf4;" 
d="M92.5 51c-39.667 42.667 -59.501 110.333 -59.501 203s20.5 160.5 61.5 203.5s94.833 64.5 161.5 64.5c148 0 222 -89 222 -267c0 -92.667 -20.667 -160.5 -62 -203.5s-95.666 -64.5 -162.999 -64.5s-120.833 21.333 -160.5 64zM190.499 380.999
c-15 -22 -22.499 -64.333 -22.499 -127c0 -106.667 29 -160 87 -160c27.333 0 48.666 11.833 63.999 35.5s23 66 23 127s-7.33301 102.5 -22 124.5s-36.167 33 -64.5 33s-50 -11 -65 -33zM253 675.999l-84 -85l-64 52l111 119h74l111 -119l-64 -52z" />
    <glyph glyph-name="otilde" unicode="&#xf5;" 
d="M416 51.5c-41.333 -43 -95.667 -64.501 -163 -64.501s-120.833 21.333 -160.5 64s-59.5 110.334 -59.5 203.001s20.5 160.5 61.5 203.5s94.833 64.5 161.5 64.5c148 0 222 -89 222 -267c0 -92.667 -20.667 -160.5 -62 -203.5zM319.999 380.999
c-14.667 22 -36.166 33 -64.499 33s-50 -11 -65 -33s-22.5 -64.333 -22.5 -127c0 -106.667 29 -160 87 -160c27.333 0 48.666 11.833 63.999 35.5s23 66 23 127s-7.33301 102.5 -22 124.5zM257 706.499c30 -14.333 52.666 -21.5 67.999 -21.5s32.666 11.667 51.999 35
l49 -54c-12 -20 -28.167 -37.5 -48.5 -52.5s-39.666 -22.5 -57.999 -22.5s-42.166 7.16699 -71.499 21.5s-51.5 21.5 -66.5 21.5s-32.167 -11.667 -51.5 -35l-49 54c12 20 27.833 37.5 47.5 52.5s38.5 22.5 56.5 22.5s42 -7.16699 72 -21.5z" />
    <glyph glyph-name="odieresis" unicode="&#xf6;" 
d="M416 51.5c-41.333 -43 -95.667 -64.501 -163 -64.501s-120.833 21.333 -160.5 64s-59.5 110.334 -59.5 203.001s20.5 160.5 61.5 203.5s94.833 64.5 161.5 64.5c148 0 222 -89 222 -267c0 -92.667 -20.667 -160.5 -62 -203.5zM319.999 380.999
c-14.667 22 -36.166 33 -64.499 33s-50 -11 -65 -33s-22.5 -64.333 -22.5 -127c0 -106.667 29 -160 87 -160c27.333 0 48.666 11.833 63.999 35.5s23 66 23 127s-7.33301 102.5 -22 124.5zM111.5 714.999c13 13.333 29.333 20 49 20s36.167 -6.66699 49.5 -20
s20 -29.666 20 -48.999s-6.66699 -35.833 -20 -49.5s-29.833 -20.5 -49.5 -20.5s-36 6.83301 -49 20.5s-19.5 30.167 -19.5 49.5s6.5 35.666 19.5 48.999zM296 714.999c13.333 13.333 29.666 20 48.999 20s35.666 -6.66699 48.999 -20s20 -29.666 20 -48.999
s-6.66699 -35.833 -20 -49.5s-29.666 -20.5 -48.999 -20.5s-35.666 6.83301 -48.999 20.5s-20 30.167 -20 49.5s6.66699 35.666 20 48.999z" />
    <glyph glyph-name="divide" unicode="&#xf7;" horiz-adv-x="537" 
d="M222.5 483c13 12 28.5 18 46.5 18s33.167 -6 45.5 -18s18.5 -26.833 18.5 -44.5s-6.16699 -33.167 -18.5 -46.5s-27.5 -20 -45.5 -20s-33.5 6.66699 -46.5 20s-19.5 28.833 -19.5 46.5s6.5 32.5 19.5 44.5zM497 332v-109h-457v109h457zM222.5 162c13 12 28.5 18 46.5 18
s33.167 -6 45.5 -18s18.5 -26.833 18.5 -44.5s-6.16699 -33.167 -18.5 -46.5s-27.5 -20 -45.5 -20s-33.5 6.66699 -46.5 20s-19.5 28.833 -19.5 46.5s6.5 32.5 19.5 44.5z" />
    <glyph glyph-name="oslash" unicode="&#xf8;" 
d="M97 45c-42.667 46 -64.001 115.5 -64.001 208.5s20.5 161 61.5 204s94.833 64.5 161.5 64.5c24 0 47.667 -2.66699 71 -8l40 83l75 -36l-41 -85c51.333 -44 77 -115 77 -213s-20.667 -168.5 -62 -211.5s-96.666 -64.5 -165.999 -64.5c-26.667 0 -53.667 4.33301 -81 13
l-38 -78l-77 35zM254.999 94c27.333 0 48.667 11.833 64 35.5s23 59.5 23 107.5s-2.33301 82.333 -7 103l-116 -238c10 -5.33301 22 -8 36 -8zM256 414c-28.667 0 -50.5 -11 -65.5 -33s-22.5 -64.333 -22.5 -127c0 -16.667 1.33301 -35.667 4 -57l105 215
c-9.33301 1.33301 -16.333 2 -21 2z" />
    <glyph glyph-name="ugrave" unicode="&#xf9;" horiz-adv-x="543" 
d="M363 47c-51.333 -40 -105.833 -60.001 -163.5 -60.001s-97 14.833 -118 44.5s-31.5 71.834 -31.5 126.501v355h140v-330c0 -26.667 4 -47 12 -61s27.833 -21 59.5 -21s61.167 10.333 88.5 31v381h140v-526h-115zM310 586.999l-204 76l49 111l189 -109z" />
    <glyph glyph-name="uacute" unicode="&#xfa;" horiz-adv-x="543" 
d="M363 47c-51.333 -40 -105.833 -60.001 -163.5 -60.001s-97 14.833 -118 44.5s-31.5 71.834 -31.5 126.501v355h140v-330c0 -26.667 4 -47 12 -61s27.833 -21 59.5 -21s61.167 10.333 88.5 31v381h140v-526h-115zM427 662.999l-204 -76l-34 78l189 109z" />
    <glyph glyph-name="ucircumflex" unicode="&#xfb;" horiz-adv-x="543" 
d="M363 47c-51.333 -40 -105.833 -60.001 -163.5 -60.001s-97 14.833 -118 44.5s-31.5 71.834 -31.5 126.501v355h140v-330c0 -26.667 4 -47 12 -61s27.833 -21 59.5 -21s61.167 10.333 88.5 31v381h140v-526h-115zM270 675.999l-84 -85l-64 52l111 119h74l111 -119l-64 -52
z" />
    <glyph glyph-name="udieresis" unicode="&#xfc;" horiz-adv-x="543" 
d="M363 47c-51.333 -40 -105.833 -60.001 -163.5 -60.001s-97 14.833 -118 44.5s-31.5 71.834 -31.5 126.501v355h140v-330c0 -26.667 4 -47 12 -61s27.833 -21 59.5 -21s61.167 10.333 88.5 31v381h140v-526h-115zM131.5 714.999c13 13.333 29.333 20 49 20
s36.167 -6.66699 49.5 -20s20 -29.666 20 -48.999s-6.66699 -35.833 -20 -49.5s-29.833 -20.5 -49.5 -20.5s-36 6.83301 -49 20.5s-19.5 30.167 -19.5 49.5s6.5 35.666 19.5 48.999zM316 714.999c13.333 13.333 29.666 20 48.999 20s35.666 -6.66699 48.999 -20
s20 -29.666 20 -48.999s-6.66699 -35.833 -20 -49.5s-29.666 -20.5 -48.999 -20.5s-35.666 6.83301 -48.999 20.5s-20 30.167 -20 49.5s6.66699 35.666 20 48.999z" />
    <glyph glyph-name="yacute" unicode="&#xfd;" horiz-adv-x="502" 
d="M85 -213c-30 0 -65.001 6 -105.001 18l21 97c0 -0.666992 10 -2.5 30 -5.5s33 -4.5 39 -4.5c37.333 0 63.833 6.83301 79.5 20.5s29.834 47.167 42.501 100.5l-187 487l133 17l115 -354l102 350h135l-162 -471c-34.667 -100 -67.5 -167.5 -98.5 -202.5
s-79.167 -52.5 -144.5 -52.5zM413.999 663l-204 -76l-34 78l189 109z" />
    <glyph glyph-name="thorn" unicode="&#xfe;" horiz-adv-x="542" 
d="M193 -212l-140 0.000976562v913h140v-221c14 11.333 32.833 21.166 56.5 29.499s47.5 12.5 71.5 12.5c54.667 0 99.667 -20.833 135 -62.5s53 -101.167 53 -178.5c0 -196 -80 -294 -240 -294c-26 0 -51.333 5.33301 -76 16v-215zM245 100.001
c46 0 77.998 14.001 95.998 42.001s27 68.667 27 122s-7.16699 90.666 -21.5 111.999s-36.166 32 -65.499 32s-58.666 -9 -87.999 -27v-276c18 -3.33301 35.333 -5 52 -5z" />
    <glyph glyph-name="ydieresis" unicode="&#xff;" horiz-adv-x="502" 
d="M85 -213c-30 0 -65.001 6 -105.001 18l21 97c0 -0.666992 10 -2.5 30 -5.5s33 -4.5 39 -4.5c37.333 0 63.833 6.83301 79.5 20.5s29.834 47.167 42.501 100.5l-187 487l133 17l115 -354l102 350h135l-162 -471c-34.667 -100 -67.5 -167.5 -98.5 -202.5
s-79.167 -52.5 -144.5 -52.5zM106.499 715c13 13.333 29.333 20 49 20s36.167 -6.66699 49.5 -20s20 -29.666 20 -48.999s-6.66699 -35.833 -20 -49.5s-29.833 -20.5 -49.5 -20.5s-36 6.83301 -49 20.5s-19.5 30.167 -19.5 49.5s6.5 35.666 19.5 48.999zM290.999 715
c13.333 13.333 29.666 20 48.999 20s35.666 -6.66699 48.999 -20s20 -29.666 20 -48.999s-6.66699 -35.833 -20 -49.5s-29.666 -20.5 -48.999 -20.5s-35.666 6.83301 -48.999 20.5s-20 30.167 -20 49.5s6.66699 35.666 20 48.999z" />
    <glyph glyph-name="dotlessi" unicode="&#x131;" horiz-adv-x="246" 
d="M193 0h-140v512l140 12v-524z" />
    <glyph glyph-name="Lslash" unicode="&#x141;" horiz-adv-x="516" 
d="M419 383v-109h-168v-158h255v-116h-400v274h-89v109h89v285h145v-285h168z" />
    <glyph glyph-name="lslash" unicode="&#x142;" horiz-adv-x="440" 
d="M364 9c-34 -14.667 -67.001 -21.999 -99.001 -21.999s-58.333 3.66699 -79 11s-36.167 15.666 -46.5 24.999s-18.166 23 -23.499 41s-8.5 33.167 -9.5 45.5s-1.5 29.5 -1.5 51.5v113h-81v109h81v317h141v-317h180v-109h-180v-121c0 -19.333 2.83301 -33 8.5 -41
s17.167 -12 34.5 -12s35.333 2.33301 54 7z" />
    <glyph glyph-name="OE" unicode="&#x152;" horiz-adv-x="913" 
d="M317 680c54 0 101.999 -14 143.999 -42v31h401v-116h-291v-151h275v-112h-275v-174h300v-116h-410v31c-41.333 -28.667 -92.666 -43 -153.999 -43c-114 0 -191.667 49.333 -233 148c-23.333 56 -35 122 -35 198c0 94 19.333 173.333 58 238c42.667 72 116 108 220 108z
M308.999 110c48.667 0 82.668 19.832 102.001 59.499s29 88.5 29 146.5s-3.33301 102.833 -10 134.5s-20 58.334 -40 80.001s-44.833 32.5 -74.5 32.5s-53.334 -5.83301 -71.001 -17.5s-31.167 -28.5 -40.5 -50.5c-17.333 -40.667 -26 -95.167 -26 -163.5
s9.66699 -122.333 29 -162s53.333 -59.5 102 -59.5z" />
    <glyph glyph-name="oe" unicode="&#x153;" horiz-adv-x="803" 
d="M615 92c43.333 0 85.0039 7.66602 125.004 22.999l24 -95c-50.667 -22 -107.667 -33 -171 -33c-80.667 0 -139.667 26.667 -177 80c-36.667 -53.333 -89.834 -80 -159.501 -80s-124.334 21.333 -164.001 64s-59.5 110.334 -59.5 203.001s20.5 160.5 61.5 203.5
s96.667 64.5 167 64.5s122.833 -27 157.5 -81c37.333 54 92.666 81 165.999 81c59.333 0 105.166 -15.833 137.499 -47.5s48.5 -75.834 48.5 -132.501c0 -33.333 -4.33301 -66.666 -13 -99.999h-276c0.666992 -100 45 -150 133 -150zM323.504 380.999
c-15 22 -37.167 33.001 -66.5 33.001s-51.5 -11 -66.5 -33s-22.5 -64.333 -22.5 -127c0 -106.667 29 -160 87 -160c29.333 0 51.833 11.667 67.5 35s23.5 65.666 23.5 126.999s-7.5 103 -22.5 125zM659.004 318v6c0 66 -23.333 99 -70 99c-49.333 0 -82.333 -25 -99 -75
c-2.66699 -9.33301 -5 -19.333 -7 -30h176z" />
    <glyph glyph-name="Scaron" unicode="&#x160;" horiz-adv-x="500" 
d="M472 187c0 -59.333 -20.499 -107.499 -61.499 -144.499s-96.167 -55.5 -165.5 -55.5c-33.333 0 -70.833 4.5 -112.5 13.5s-76.167 19.833 -103.5 32.5l37 119c61.333 -28 119.333 -42 174 -42c62 0 93 24 93 72c0 23.333 -10.333 43.333 -31 60s-48.667 33.167 -84 49.5
s-60.5 28.833 -75.5 37.5s-31.5 21 -49.5 37c-34 30 -51 73.667 -51 131s20.167 102.333 60.5 135s90.333 49 150 49s123.834 -12.667 192.501 -38l-40 -109c-54.667 19.333 -101.334 29 -140.001 29c-55.333 0 -83.333 -22 -84 -66c0 -18 6 -31.5 18 -40.5
s20.667 -15.333 26 -19s16.166 -9.66699 32.499 -18l45.5 -24l38.5 -22c11.667 -7 27.167 -17.833 46.5 -32.5s34 -28.334 44 -41.001c26.667 -33.333 40 -71 40 -113zM152.001 896.001l84 -85l84 85l64 -52l-111 -119h-74l-111 119z" />
    <glyph glyph-name="scaron" unicode="&#x161;" horiz-adv-x="419" 
d="M132 743l84 -85l84 85l64 -52l-111 -119h-74l-111 119zM237 414c-45.333 0 -68 -15.0029 -68 -45.0029c0 -16 7.66699 -29.667 23 -41s33.833 -21.166 55.5 -29.499s43.334 -17.666 65.001 -27.999s40.167 -25.166 55.5 -44.499s23 -43 23 -71
c0 -50 -17 -90.5 -51 -121.5s-84 -46.5 -150 -46.5c-30 0 -61.5 3.33301 -94.5 10s-57.167 14.334 -72.5 23.001l34 100c52 -17.333 98.833 -26 140.5 -26s62.5 16.333 62.5 49c0 14 -7.66699 26.667 -23 38s-33.833 21.833 -55.5 31.5s-43.334 20.167 -65.001 31.5
s-40.167 27.333 -55.5 48s-23 44.667 -23 72c0 51.333 17 90.666 51 117.999s82.667 41 146 41s113 -10.333 149 -31l-33 -99c-46 14 -84 21 -114 21z" />
    <glyph glyph-name="Ydieresis" unicode="&#x178;" horiz-adv-x="548" 
d="M346 0h-144v264l-210 404h146l136 -285l136 285h146l-210 -404v-264zM127.5 834c13 13.333 29.333 20 49 20s36.167 -6.66699 49.5 -20s20 -29.666 20 -48.999s-6.66699 -35.833 -20 -49.5s-29.833 -20.5 -49.5 -20.5s-36 6.83301 -49 20.5s-19.5 30.167 -19.5 49.5
s6.5 35.666 19.5 48.999zM312 834c13.333 13.333 29.666 20 48.999 20s35.666 -6.66699 48.999 -20s20 -29.666 20 -48.999s-6.66699 -35.833 -20 -49.5s-29.666 -20.5 -48.999 -20.5s-35.666 6.83301 -48.999 20.5s-20 30.167 -20 49.5s6.66699 35.666 20 48.999z" />
    <glyph glyph-name="Zcaron" unicode="&#x17d;" horiz-adv-x="525" 
d="M496 117v-117h-453l-11 88l283 464h-267l-15 116h433l9 -93l-281 -458h302zM185 896l84 -85l84 85l64 -52l-111 -119h-74l-111 119z" />
    <glyph glyph-name="zcaron" unicode="&#x17e;" horiz-adv-x="451" 
d="M181 95h240l12 -95h-396l-12 75l225 341h-205l-10 96h359l13 -78zM142 742l84 -85l84 85l64 -52l-111 -119h-74l-111 119z" />
    <glyph glyph-name="florin" unicode="&#x192;" horiz-adv-x="624" 
d="M242 -33l0.00195312 449l-94 6v82l95 7v29c0 68.667 18.667 118.667 56 150s95.333 47 174 47c40 0 84.667 -8 134 -24l-29 -100c-28 6.66699 -61.333 10 -100 10s-64.334 -7.5 -77.001 -22.5s-19 -39.5 -19 -73.5v-15h153l-9 -96h-144v-462
c0 -68.667 -18.833 -118.667 -56.5 -150s-95.834 -47 -174.501 -47c-40 0 -84.667 8 -134 24l29 100c28.667 -6.66699 62.167 -10 100.5 -10s63.833 7.5 76.5 22.5s19 39.5 19 73.5z" />
    <glyph glyph-name="circumflex" unicode="&#x2c6;" horiz-adv-x="380" 
d="M190 676l-84 -85l-64 52l111 119h74l111 -119l-64 -52z" />
    <glyph glyph-name="caron" unicode="&#x2c7;" horiz-adv-x="408" 
d="M125 742l84 -85l84 85l64 -52l-111 -119h-74l-111 119z" />
    <glyph glyph-name="breve" unicode="&#x2d8;" horiz-adv-x="300" 
d="M110 658c0 -11.333 3.16895 -22 9.50195 -32s16.666 -15 30.999 -15s24.666 4.83301 30.999 14.5s9.5 20.5 9.5 32.5h67c0 -30 -9.33301 -55.833 -28 -77.5s-45.667 -32.5 -81 -32.5s-62 10.667 -80 32s-27 47.333 -27 78h68z" />
    <glyph glyph-name="dotaccent" unicode="&#x2d9;" horiz-adv-x="220" 
d="M52 656c16 16 35.333 24 58 24s42 -8 58 -24s24 -35.167 24 -57.5s-8 -41.833 -24 -58.5s-35.333 -25 -58 -25s-42 8.16699 -58 24.5s-24 35.833 -24 58.5s8 42 24 58z" />
    <glyph glyph-name="ring" unicode="&#x2da;" horiz-adv-x="297" 
d="M248 701c0 -28.667 -9.00098 -53.168 -27.001 -73.501s-43.667 -30.5 -77 -30.5s-58.666 10 -75.999 30s-26 44.333 -26 73s8.83301 52.834 26.5 72.501s43.167 29.5 76.5 29.5s58.833 -9.66699 76.5 -29s26.5 -43.333 26.5 -72zM144.999 659.999
c24 0 36 13.001 36 39.001s-11.833 39 -35.5 39s-35.5 -13 -35.5 -39c0 -10.667 2.83301 -19.834 8.5 -27.501s14.5 -11.5 26.5 -11.5z" />
    <glyph glyph-name="ogonek" unicode="&#x2db;" horiz-adv-x="309" 
d="M160 -105c0 -19.333 12.332 -28.999 36.999 -28.999c12.667 0 28.334 3 47.001 9l18 -93c-40.667 -16.667 -77.667 -25 -111 -25s-59.333 9.5 -78 28.5s-28 41.667 -28 68s5.5 51.166 16.5 74.499s25.833 43 44.5 59h110c-37.333 -33.333 -56 -64 -56 -92z" />
    <glyph glyph-name="tilde" unicode="&#x2dc;" horiz-adv-x="474" 
d="M243 706.5c30 -14.333 52.498 -21.5 67.498 -21.5s32.167 11.667 51.5 35l49 -54c-12 -20 -28.167 -37.5 -48.5 -52.5s-39.666 -22.5 -57.999 -22.5s-42.166 7.16699 -71.499 21.5s-51.5 21.5 -66.5 21.5s-32.167 -11.667 -51.5 -35l-49 54c12 20 27.833 37.5 47.5 52.5
s38.667 22.5 57 22.5s42.5 -7.16699 72.5 -21.5z" />
    <glyph glyph-name="hungarumlaut" unicode="&#x2dd;" horiz-adv-x="534" 
d="M266 644l-157 -150l-62 58l130 174zM487 644l-157 -150l-62 58l130 174z" />
    <glyph glyph-name="endash" unicode="&#x2013;" horiz-adv-x="559" 
d="M508 332v-109h-457v109h457z" />
    <glyph glyph-name="emdash" unicode="&#x2014;" horiz-adv-x="709" 
d="M658 332v-109h-607v109h607z" />
    <glyph glyph-name="quoteleft" unicode="&#x2018;" horiz-adv-x="221" 
d="M41 533c0 70 29.667 132.332 89 186.999h103c-54.667 -63.333 -82 -120.666 -82 -171.999c0 -22 5.66699 -46 17 -72h-115c-8 17.333 -12 36.333 -12 57z" />
    <glyph glyph-name="quoteright" unicode="&#x2019;" horiz-adv-x="254" 
d="M224 642c0 -70 -29.667 -132.332 -89 -186.999h-103c54.667 63.333 82 120.666 82 171.999c0 22 -5.66699 46 -17 72h115c8 -17.333 12 -36.333 12 -57z" />
    <glyph glyph-name="quotesinglbase" unicode="&#x201a;" horiz-adv-x="218" 
d="M172 59c0 -70 -29.667 -132.332 -89 -186.999h-103c54.667 63.333 82 120.666 82 171.999c0 22 -5.66699 46 -17 72h115c8 -17.333 12 -36.333 12 -57z" />
    <glyph glyph-name="quotedblleft" unicode="&#x201c;" horiz-adv-x="411" 
d="M41 533c0 70 29.667 132.332 89 186.999h103c-54.667 -63.333 -82 -120.666 -82 -171.999c0 -22 5.66699 -46 17 -72h-115c-8 17.333 -12 36.333 -12 57zM231 532.999c0 70 29.667 132.332 89 186.999h103c-54.667 -63.333 -82 -120.666 -82 -171.999
c0 -22 5.66699 -46 17 -72h-115c-8 17.333 -12 36.333 -12 57z" />
    <glyph glyph-name="quotedblright" unicode="&#x201d;" horiz-adv-x="444" 
d="M414 642c0 -70 -29.667 -132.332 -89 -186.999h-103c54.667 63.333 82 120.666 82 171.999c0 22 -5.66699 46 -17 72h115c8 -17.333 12 -36.333 12 -57zM224 642.001c0 -70 -29.667 -132.332 -89 -186.999h-103c54.667 63.333 82 120.666 82 171.999
c0 22 -5.66699 46 -17 72h115c8 -17.333 12 -36.333 12 -57z" />
    <glyph glyph-name="quotedblbase" unicode="&#x201e;" horiz-adv-x="408" 
d="M172 59c0 -70 -29.667 -132.332 -89 -186.999h-103c54.667 63.333 82 120.666 82 171.999c0 22 -5.66699 46 -17 72h115c8 -17.333 12 -36.333 12 -57zM362 59.001c0 -70 -29.667 -132.332 -89 -186.999h-103c54.667 63.333 82 120.666 82 171.999
c0 22 -5.66699 46 -17 72h115c8 -17.333 12 -36.333 12 -57z" />
    <glyph glyph-name="dagger" unicode="&#x2020;" horiz-adv-x="418" 
d="M394 480v-88l-162 15l25 -407h-106l25 407l-152 -15v88l152 -15l-27 204h110l-27 -204z" />
    <glyph glyph-name="daggerdbl" unicode="&#x2021;" horiz-adv-x="419" 
d="M254 341l-21 -126l143 13v-78l-143 13l24 -163h-94l23 163l-143 -13v78l143 -13l-20 126l20 118l-143 -13v79l143 -14l-23 163h94l-24 -163l143 14v-79l-143 13z" />
    <glyph glyph-name="bullet" unicode="&#x2022;" horiz-adv-x="357" 
d="M62 314c0 33.333 11.167 61.166 33.5 83.499s50 33.5 83 33.5s60.667 -11.167 83 -33.5s33.5 -50.166 33.5 -83.499s-11.167 -61.166 -33.5 -83.499s-50 -33.5 -83 -33.5s-60.667 11.167 -83 33.5s-33.5 50.166 -33.5 83.499z" />
    <glyph glyph-name="ellipsis" unicode="&#x2026;" horiz-adv-x="702" 
d="M63 134c16 16 35.333 24 58 24s42 -8 58 -24s24 -35.167 24 -57.5s-8 -41.833 -24 -58.5s-35.333 -25 -58 -25s-42 8.16699 -58 24.5s-24 35.833 -24 58.5s8 42 24 58zM294 134c16 16 35.333 24 58 24s42 -8 58 -24s24 -35.167 24 -57.5s-8 -41.833 -24 -58.5
s-35.333 -25 -58 -25s-42 8.16699 -58 24.5s-24 35.833 -24 58.5s8 42 24 58zM524 134c16 16 35.333 24 58 24s42 -8 58 -24s24 -35.167 24 -57.5s-8 -41.833 -24 -58.5s-35.333 -25 -58 -25s-42 8.16699 -58 24.5s-24 35.833 -24 58.5s8 42 24 58z" />
    <glyph glyph-name="perthousand" unicode="&#x2030;" horiz-adv-x="1158" 
d="M61.5 355c-25.667 26.667 -38.498 77.334 -38.498 152.001c0 77.333 17.333 130.333 52 159c28.667 24 64.5 36 107.5 36s77.5 -13.667 103.5 -41s39 -78.333 39 -153c0 -76.667 -17 -129.334 -51 -158.001c-28.667 -23.333 -64.834 -35 -108.501 -35
s-78.334 13.333 -104.001 40zM174.002 635c-18.667 0 -32.832 -9.00098 -42.499 -27.001s-14.5 -51.667 -14.5 -101s4.66699 -82.666 14 -99.999s23.5 -26 42.5 -26s33.333 8.66699 43 26s14.5 50.5 14.5 99.5s-4.83301 82.667 -14.5 101s-23.834 27.5 -42.501 27.5z
M529.504 27.999c-25.667 26.667 -38.498 77.333 -38.498 152c0 77.333 17.333 130.333 52 159c28.667 24 64.5 36 107.5 36s77.5 -13.667 103.5 -41s39 -78.333 39 -153c0 -76.667 -17 -129 -51 -157c-28.667 -24 -64.834 -36 -108.501 -36s-78.334 13.333 -104.001 40z
M642.006 307.998c-18.667 0 -32.832 -9.00098 -42.499 -27.001s-14.5 -51.667 -14.5 -101s4.66699 -82.666 14 -99.999s23.5 -26 42.5 -26s33.333 8.66699 43 26s14.5 50.5 14.5 99.5s-4.83301 82.667 -14.5 101s-23.834 27.5 -42.501 27.5zM871.508 27.9971
c-25.667 26.667 -38.498 77.333 -38.498 152c0 77.333 17.333 130.333 52 159c28.667 24 64.5 36 107.5 36s77.5 -13.667 103.5 -41s39 -78.333 39 -153c0 -76.667 -17 -129 -51 -157c-28.667 -24 -64.834 -36 -108.501 -36s-78.334 13.333 -104.001 40zM984.01 307.996
c-18.667 0 -32.832 -9.00098 -42.499 -27.001s-14.5 -51.667 -14.5 -101s4.66699 -82.666 14 -99.999s23.5 -26 42.5 -26s33.333 8.66699 43 26s14.5 50.5 14.5 99.5s-4.83301 82.667 -14.5 101s-23.834 27.5 -42.501 27.5zM592.012 752.995l-283 -849l-107 29l285 851z" />
    <glyph glyph-name="guilsinglleft" unicode="&#x2039;" horiz-adv-x="330" 
d="M293 423l-140 -145l140 -142l-82 -73l-176 186v59l176 185z" />
    <glyph glyph-name="guilsinglright" unicode="&#x203a;" horiz-adv-x="330" 
d="M177 278l-140 145l82 70l176 -185v-59l-176 -186l-82 73z" />
    <glyph glyph-name="fraction" unicode="&#x2044;" horiz-adv-x="387" 
d="M388 765l-283 -849l-107 29l285 851z" />
    <glyph glyph-name="Euro" unicode="&#x20ac;" horiz-adv-x="581" 
d="M407 451l0.000976562 -73.999h-159c-0.666992 -8 -1 -20.667 -1 -38s0.333008 -30 1 -38h159v-74h-147c24 -80.667 80 -121 168 -121c39.333 0 75 2.66699 107 8l9 -109c-52.667 -12 -104 -18 -154 -18c-70.667 0 -131.167 18.833 -181.5 56.5
s-83.5 98.834 -99.5 183.501h-76v74h68c-0.666992 7.33301 -1 19.666 -1 36.999s0.333008 30.333 1 39h-68v74h79c12 54.667 33.667 99.667 65 135s65.333 59.666 102 72.999s78.5 20 125.5 20s95.833 -7.33301 146.5 -22l-23 -103c-38 7.33301 -73.333 11 -106 11
c-84.667 0 -138.334 -38 -161.001 -114h146z" />
    <glyph glyph-name="trademark" unicode="&#x2122;" horiz-adv-x="795" 
d="M142 604h-98v64h278v-64h-100v-312h-80v312zM523 339l-78 222l-9 -269h-75l21 376h88l82 -242l81 242h88l22 -376h-75l-10 269l-77 -222h-58z" />
    <glyph glyph-name="minus" unicode="&#x2212;" horiz-adv-x="522" 
d="M467 332v-109h-412v109h412z" />
    <glyph glyph-name="fi" unicode="&#xfb01;" horiz-adv-x="616" 
d="M564 0h-140v416h-175v-602l-140 14v588l-94 6v82l95 7v29c0 69.333 19 119.5 57 150.5s98 46.5 180 46.5c50 0 99.667 -8 149 -24l-29 -100c-28.667 6.66699 -65.5 10 -110.5 10s-74.167 -7.5 -87.5 -22.5s-20 -39.5 -20 -73.5v-15h175l140 12v-524z" />
    <glyph glyph-name="fl" unicode="&#xfb02;" horiz-adv-x="727" 
d="M731 9c-34 -14.667 -67.002 -22.001 -99.002 -22.001s-58.333 3.66699 -79 11s-36.167 15.666 -46.5 24.999s-18.166 23 -23.499 41s-8.5 33.167 -9.5 45.5s-1.5 29.5 -1.5 51.5v453c-26 10 -62.5 15 -109.5 15s-77.667 -7.66699 -92 -23s-21.5 -41.666 -21.5 -78.999
v-15h143l-9 -96h-134v-602l-140 14v588l-94 6v82l95 7v29c0 78.667 25 133.334 75 164.001c44.667 27.333 104.334 41 179.001 41s157.667 -15 249 -45v-547c0 -19.333 2.83301 -33 8.5 -41s17.167 -12 34.5 -12s35.333 2.33301 54 7z" />
    <glyph glyph-name=".null" horiz-adv-x="0" 
 />
    <glyph glyph-name="nonmarkingreturn" horiz-adv-x="333" 
 />
    </font>
</defs>
</svg>
